<svg width="96" height="96" viewBox="0 0 96 96" fill="none" xmlns="http://www.w3.org/2000/svg">
<g filter="url(#filter0_dii_4110_5650)">
<circle cx="47.5829" cy="43.5829" r="42.5829" fill="#2C2C29"/>
<circle cx="47.5829" cy="43.5829" r="42.0829" stroke="black"/>
</g>
<g clip-path="url(#clip0_4110_5650)">
<g style="mix-blend-mode:hard-light" filter="url(#filter1_d_4110_5650)">
<path fill-rule="evenodd" clip-rule="evenodd" d="M43.7827 24.3122C46.2028 21.8917 49.4852 20.5317 52.908 20.5312H59.5455C60.0345 20.5312 60.5035 20.7255 60.8492 21.0713C61.195 21.417 61.3893 21.886 61.3893 22.375V31.225C61.3893 31.714 61.195 32.183 60.8492 32.5287C60.5035 32.8745 60.0345 33.0687 59.5455 33.0687H52.908C52.8596 33.0687 52.8116 33.0783 52.7669 33.0968C52.7222 33.1154 52.6815 33.1425 52.6473 33.1768C52.613 33.211 52.5859 33.2516 52.5673 33.2964C52.5488 33.3411 52.5393 33.3891 52.5393 33.4375V38.2312H59.5455C59.8258 38.2311 60.1025 38.2948 60.3544 38.4177C60.6064 38.5405 60.827 38.7191 60.9996 38.94C61.1721 39.1609 61.292 39.4183 61.3502 39.6925C61.4083 39.9666 61.4032 40.2505 61.3352 40.5224L59.1227 49.3724C59.0229 49.7714 58.7925 50.1256 58.4682 50.3786C58.1439 50.6317 57.7443 50.769 57.333 50.7687H52.5393V66.625C52.5393 67.114 52.345 67.583 51.9992 67.9287C51.6535 68.2745 51.1845 68.4687 50.6955 68.4687H41.8455C41.3565 68.4687 40.8876 68.2745 40.5418 67.9287C40.196 67.583 40.0018 67.114 40.0018 66.625V50.7687H35.208C34.719 50.7687 34.25 50.5745 33.9043 50.2287C33.5585 49.883 33.3643 49.414 33.3643 48.925V40.075C33.3643 39.8329 33.4119 39.5931 33.5046 39.3694C33.5973 39.1457 33.7331 38.9425 33.9043 38.7713C34.0755 38.6001 34.2787 38.4643 34.5024 38.3716C34.7261 38.2789 34.9659 38.2312 35.208 38.2312H40.0018V33.4375C40.0022 30.0147 41.3622 26.7322 43.7827 24.3122ZM52.908 24.2187C50.463 24.2187 48.1182 25.19 46.3894 26.9189C44.6605 28.6477 43.6893 30.9925 43.6893 33.4375V40.075C43.6893 40.564 43.495 41.033 43.1492 41.3787C42.8035 41.7245 42.3345 41.9187 41.8455 41.9187H37.0518V47.0812H41.8455C42.3345 47.0812 42.8035 47.2755 43.1492 47.6213C43.495 47.967 43.6893 48.436 43.6893 48.925V64.7812H48.8518V48.925C48.8518 48.436 49.046 47.967 49.3918 47.6213C49.7376 47.2755 50.2065 47.0812 50.6955 47.0812H55.8924L57.1831 41.9187H50.6955C50.2065 41.9187 49.7376 41.7245 49.3918 41.3787C49.046 41.033 48.8518 40.564 48.8518 40.075V33.4375C48.8518 32.3617 49.2791 31.33 50.0398 30.5693C50.8005 29.8086 51.8322 29.3812 52.908 29.3812H57.7018V24.2187H52.908Z" fill="#B7D9E9"/>
</g>
</g>
<defs>
<filter id="filter0_dii_4110_5650" x="0" y="-3" width="95.166" height="98.1658" filterUnits="userSpaceOnUse" color-interpolation-filters="sRGB">
<feFlood flood-opacity="0" result="BackgroundImageFix"/>
<feColorMatrix in="SourceAlpha" type="matrix" values="0 0 0 0 0 0 0 0 0 0 0 0 0 0 0 0 0 0 127 0" result="hardAlpha"/>
<feMorphology radius="1" operator="dilate" in="SourceAlpha" result="effect1_dropShadow_4110_5650"/>
<feOffset dy="4"/>
<feGaussianBlur stdDeviation="2"/>
<feComposite in2="hardAlpha" operator="out"/>
<feColorMatrix type="matrix" values="0 0 0 0 0 0 0 0 0 0 0 0 0 0 0 0 0 0 0.37 0"/>
<feBlend mode="normal" in2="BackgroundImageFix" result="effect1_dropShadow_4110_5650"/>
<feBlend mode="normal" in="SourceGraphic" in2="effect1_dropShadow_4110_5650" result="shape"/>
<feColorMatrix in="SourceAlpha" type="matrix" values="0 0 0 0 0 0 0 0 0 0 0 0 0 0 0 0 0 0 127 0" result="hardAlpha"/>
<feOffset dx="-2" dy="5"/>
<feGaussianBlur stdDeviation="2"/>
<feComposite in2="hardAlpha" operator="arithmetic" k2="-1" k3="1"/>
<feColorMatrix type="matrix" values="0 0 0 0 1 0 0 0 0 1 0 0 0 0 1 0 0 0 0.25 0"/>
<feBlend mode="normal" in2="shape" result="effect2_innerShadow_4110_5650"/>
<feColorMatrix in="SourceAlpha" type="matrix" values="0 0 0 0 0 0 0 0 0 0 0 0 0 0 0 0 0 0 127 0" result="hardAlpha"/>
<feOffset dx="2" dy="-4"/>
<feGaussianBlur stdDeviation="2"/>
<feComposite in2="hardAlpha" operator="arithmetic" k2="-1" k3="1"/>
<feColorMatrix type="matrix" values="0 0 0 0 0 0 0 0 0 0 0 0 0 0 0 0 0 0 0.25 0"/>
<feBlend mode="normal" in2="effect2_innerShadow_4110_5650" result="effect3_innerShadow_4110_5650"/>
</filter>
<filter id="filter1_d_4110_5650" x="23.3643" y="10.5312" width="48.0264" height="67.9375" filterUnits="userSpaceOnUse" color-interpolation-filters="sRGB">
<feFlood flood-opacity="0" result="BackgroundImageFix"/>
<feColorMatrix in="SourceAlpha" type="matrix" values="0 0 0 0 0 0 0 0 0 0 0 0 0 0 0 0 0 0 127 0" result="hardAlpha"/>
<feOffset/>
<feGaussianBlur stdDeviation="5"/>
<feComposite in2="hardAlpha" operator="out"/>
<feColorMatrix type="matrix" values="0 0 0 0 0.372923 0 0 0 0 0.557794 0 0 0 0 0.691667 0 0 0 1 0"/>
<feBlend mode="normal" in2="BackgroundImageFix" result="effect1_dropShadow_4110_5650"/>
<feBlend mode="normal" in="SourceGraphic" in2="effect1_dropShadow_4110_5650" result="shape"/>
</filter>
<clipPath id="clip0_4110_5650">
<rect width="59" height="59" fill="white" transform="translate(18 15)"/>
</clipPath>
</defs>
</svg>
