<svg width="96" height="96" viewBox="0 0 96 96" fill="none" xmlns="http://www.w3.org/2000/svg">
<g filter="url(#filter0_dii_4110_5648)">
<circle cx="47.5829" cy="43.5829" r="42.5829" fill="#2C2C29"/>
<circle cx="47.5829" cy="43.5829" r="42.0829" stroke="black"/>
</g>
<g style="mix-blend-mode:hard-light" clip-path="url(#clip0_4110_5648)">
<g filter="url(#filter1_d_4110_5648)">
<path fill-rule="evenodd" clip-rule="evenodd" d="M54.1211 26.1649C55.1583 25.9873 56.32 25.9281 57.4143 26.1138C59.3636 26.4431 61.1697 27.3483 62.6001 28.7129C63.5311 28.7333 64.4478 28.5496 65.2584 28.2882C66.0415 28.0321 66.7935 27.689 67.5001 27.2653L67.5185 27.2531C67.8125 27.0572 68.1652 26.969 68.5168 27.0034C68.8684 27.0379 69.1973 27.1928 69.4477 27.442C69.6981 27.6912 69.8546 28.0194 69.8908 28.3708C69.9269 28.7222 69.8404 29.0754 69.6459 29.3703C69.2233 30.0134 68.6333 31.1608 67.9738 32.4471L67.6573 33.0616C67.2796 33.7966 66.8917 34.5398 66.5303 35.1768C66.3037 35.577 66.0608 35.9833 65.8158 36.3344V36.8938C65.8409 40.2394 65.1994 43.5564 63.9287 46.6514C62.6581 49.7464 60.7837 52.5573 58.4151 54.9201C56.0464 57.2829 53.2308 59.1502 50.1327 60.4131C47.0346 61.6761 43.7159 62.3093 40.3705 62.2758C35.5221 62.2826 30.7754 60.8857 26.7036 58.2538C26.4112 58.066 26.1915 57.7843 26.0804 57.4551C25.9693 57.1259 25.9735 56.7687 26.0922 56.4422C26.2109 56.1157 26.4372 55.8392 26.7338 55.6583C27.0304 55.4773 27.3797 55.4026 27.7244 55.4465C28.3369 55.5213 28.9528 55.5588 29.5721 55.5588C31.7784 55.5507 33.9569 55.066 35.9584 54.1378C34.7046 53.5674 33.5833 52.7422 32.6659 51.7147C31.7485 50.6873 31.055 49.4801 30.6297 48.17C30.5486 47.9192 30.5337 47.6518 30.5862 47.3935C30.6388 47.1353 30.7572 46.895 30.9298 46.6959L30.9502 46.6755C29.9143 45.7522 29.084 44.6215 28.5131 43.3567C27.9423 42.0919 27.6437 40.7213 27.6366 39.3336V39.2254C27.6364 38.8893 27.7469 38.5624 27.951 38.2953C28.155 38.0281 28.4413 37.8356 28.7656 37.7473C28.0746 36.3684 27.7159 34.8469 27.7183 33.3046C27.7171 31.5552 28.1747 29.8361 29.0453 28.3188C29.169 28.1035 29.3433 27.9214 29.553 27.7883C29.7628 27.6553 30.0017 27.5753 30.2493 27.5552C30.4969 27.5351 30.7456 27.5755 30.9741 27.673C31.2025 27.7705 31.4039 27.9221 31.5607 28.1147C35.1333 32.5127 40.249 35.3824 45.8646 36.1384C45.8158 34.3013 46.2793 32.4869 47.2031 30.8982C48.1269 29.3094 49.4746 28.0092 51.0953 27.1428C51.9161 26.7059 53.0023 26.3568 54.1211 26.1649ZM31.0911 41.5754C31.4876 42.6912 32.1669 43.685 33.0627 44.4594C33.9585 45.2339 35.04 45.7625 36.2014 45.9936C36.536 46.0602 36.8387 46.2367 37.0616 46.495C37.2845 46.7534 37.4147 47.0787 37.4316 47.4195C37.4485 47.7603 37.3511 48.0969 37.1548 48.376C36.9586 48.6551 36.6748 48.8607 36.3484 48.9601C35.7917 49.1289 35.2241 49.2466 34.6456 49.3133C35.2731 50.1223 36.0737 50.7805 36.9887 51.2398C37.9037 51.699 38.9099 51.9477 39.9335 51.9675C40.2493 51.9734 40.5555 52.0769 40.8102 52.2636C41.0649 52.4504 41.2556 52.7113 41.3562 53.0106C41.4568 53.31 41.4624 53.6331 41.3722 53.9358C41.2819 54.2385 41.1004 54.5058 40.8523 54.7013C38.7223 56.3746 36.2486 57.5564 33.6085 58.1619C35.7947 58.8623 38.0768 59.2171 40.3725 59.2133H40.3909C43.3309 59.2441 46.2476 58.6887 48.9706 57.5796C51.6936 56.4705 54.1683 54.83 56.2502 52.7538C58.3321 50.6776 59.9794 48.2074 61.096 45.4874C62.2125 42.7675 62.7759 39.8523 62.7533 36.9122V35.8199C62.7529 35.4481 62.8879 35.0889 63.133 34.8093C63.2759 34.648 63.5209 34.2764 63.868 33.666C64.1947 33.0902 64.5581 32.3961 64.9358 31.6631L65.0032 31.5283C63.9366 31.7681 62.8385 31.8349 61.7508 31.7264C61.383 31.6863 61.0421 31.5144 60.7912 31.2425C59.7645 30.1292 58.3972 29.3881 56.9039 29.1355C56.1508 29.0282 55.3851 29.0455 54.6376 29.1866C53.9089 29.2998 53.2014 29.5221 52.5388 29.846C51.2029 30.5598 50.1416 31.6968 49.5216 33.0788C48.9016 34.4607 48.7578 36.0094 49.1129 37.4818C49.1688 37.7134 49.1699 37.9548 49.1161 38.1868C49.0623 38.4188 48.9551 38.6351 48.8031 38.8185C48.6511 39.0018 48.4584 39.1472 48.2403 39.243C48.0222 39.3388 47.7848 39.3824 47.5469 39.3704C41.2745 39.0512 35.3447 36.4119 30.9094 31.9653C30.8231 32.4072 30.78 32.8564 30.7808 33.3066V33.3107C30.7785 34.4352 31.0543 35.5427 31.5836 36.5348C32.1129 37.5268 32.8794 38.3726 33.8147 38.9968C34.0893 39.1816 34.2967 39.4505 34.4056 39.7632C34.5146 40.0758 34.5193 40.4153 34.419 40.7308C34.3187 41.0464 34.1189 41.3209 33.8495 41.5133C33.58 41.7057 33.2555 41.8055 32.9245 41.7979C32.3085 41.7785 31.6956 41.7033 31.0931 41.5733" fill="#CAC3F5"/>
</g>
</g>
<defs>
<filter id="filter0_dii_4110_5648" x="0" y="-3" width="95.166" height="98.1658" filterUnits="userSpaceOnUse" color-interpolation-filters="sRGB">
<feFlood flood-opacity="0" result="BackgroundImageFix"/>
<feColorMatrix in="SourceAlpha" type="matrix" values="0 0 0 0 0 0 0 0 0 0 0 0 0 0 0 0 0 0 127 0" result="hardAlpha"/>
<feMorphology radius="1" operator="dilate" in="SourceAlpha" result="effect1_dropShadow_4110_5648"/>
<feOffset dy="4"/>
<feGaussianBlur stdDeviation="2"/>
<feComposite in2="hardAlpha" operator="out"/>
<feColorMatrix type="matrix" values="0 0 0 0 0 0 0 0 0 0 0 0 0 0 0 0 0 0 0.37 0"/>
<feBlend mode="normal" in2="BackgroundImageFix" result="effect1_dropShadow_4110_5648"/>
<feBlend mode="normal" in="SourceGraphic" in2="effect1_dropShadow_4110_5648" result="shape"/>
<feColorMatrix in="SourceAlpha" type="matrix" values="0 0 0 0 0 0 0 0 0 0 0 0 0 0 0 0 0 0 127 0" result="hardAlpha"/>
<feOffset dx="-2" dy="5"/>
<feGaussianBlur stdDeviation="2"/>
<feComposite in2="hardAlpha" operator="arithmetic" k2="-1" k3="1"/>
<feColorMatrix type="matrix" values="0 0 0 0 1 0 0 0 0 1 0 0 0 0 1 0 0 0 0.25 0"/>
<feBlend mode="normal" in2="shape" result="effect2_innerShadow_4110_5648"/>
<feColorMatrix in="SourceAlpha" type="matrix" values="0 0 0 0 0 0 0 0 0 0 0 0 0 0 0 0 0 0 127 0" result="hardAlpha"/>
<feOffset dx="2" dy="-4"/>
<feGaussianBlur stdDeviation="2"/>
<feComposite in2="hardAlpha" operator="arithmetic" k2="-1" k3="1"/>
<feColorMatrix type="matrix" values="0 0 0 0 0 0 0 0 0 0 0 0 0 0 0 0 0 0 0.25 0"/>
<feBlend mode="normal" in2="effect2_innerShadow_4110_5648" result="effect3_innerShadow_4110_5648"/>
</filter>
<filter id="filter1_d_4110_5648" x="16" y="16" width="63.8984" height="56.2771" filterUnits="userSpaceOnUse" color-interpolation-filters="sRGB">
<feFlood flood-opacity="0" result="BackgroundImageFix"/>
<feColorMatrix in="SourceAlpha" type="matrix" values="0 0 0 0 0 0 0 0 0 0 0 0 0 0 0 0 0 0 127 0" result="hardAlpha"/>
<feOffset/>
<feGaussianBlur stdDeviation="5"/>
<feComposite in2="hardAlpha" operator="out"/>
<feColorMatrix type="matrix" values="0 0 0 0 0.563404 0 0 0 0 0.517562 0 0 0 0 0.845 0 0 0 1 0"/>
<feBlend mode="normal" in2="BackgroundImageFix" result="effect1_dropShadow_4110_5648"/>
<feBlend mode="normal" in="SourceGraphic" in2="effect1_dropShadow_4110_5648" result="shape"/>
</filter>
<clipPath id="clip0_4110_5648">
<rect width="51" height="51" fill="white" transform="translate(22.999 18)"/>
</clipPath>
</defs>
</svg>
