<svg width="1188" height="246" viewBox="0 0 1188 246" fill="none" xmlns="http://www.w3.org/2000/svg">
<path d="M98.5835 245.542L121.556 164.38L141.153 185.766L141.491 186.135L141.968 185.987L258.581 149.834L262.302 223.921L262.41 226.072L263.716 224.359L295.585 182.57L295.826 182.254L295.715 181.872L265.945 79.475L291.974 87.896L292.218 87.9752L292.463 87.895L338.683 72.7196L335.694 126.674L294.865 131.548L294.958 133.12H335.337L329.638 235.98L331.191 236.211L356.407 133.12H391.169L386.587 155.936L386.545 156.145L386.614 156.347L403.977 207.117L404.905 209.83L405.495 207.024L420.896 133.744L485.896 135.23L477.163 175.522L477.037 176.102L477.56 176.383L504.976 191.107L505.904 191.605L506.121 190.574L536.017 48.6105L593.563 197.702L594.026 198.902L594.885 197.945L621.007 168.861L621.663 169.395L641.848 185.845L642.151 186.092L642.531 186L774.05 154.296L790.601 214.584L791.194 216.742L792.085 214.689L811.175 170.723L811.292 170.452L811.203 170.171L768.455 34.8184L768.082 33.637L767.169 34.4752L621.628 168.203L621.454 168.363L758.77 15.4778L757.888 14.2202L704.274 35.9497L704.119 36.0127L704.003 36.1334L603.205 140.754L584.756 77.2795L584.686 77.037L584.488 76.8805L532.746 36.0614L530.903 34.6081L515.494 4.63944L514.501 2.70973L514.023 4.82629L491.099 106.322L424.792 115.445L446.495 37.2976L470.158 29.5093L469.764 27.9859L440.997 33.4738L414.508 20.7389L413.591 20.2982L413.393 21.2956L409.785 39.4284L350.486 50.7411L260.943 62.2711L252.967 34.8357L252.609 33.6059L251.672 34.479L124.889 152.605L148.942 67.6235L241.139 29.489L240.713 27.9817L0.875724 66.2623L0.757291 67.7911L62.8998 87.896L63.1035 87.962L63.3125 87.9158L105.971 78.4932L97.0375 245.285L98.5835 245.542ZM374.009 61.1546L407.666 50.0772L393.806 119.736L358.654 123.933L374.009 61.1546ZM952.006 194.542L952.421 193.032L869.954 159.684L937.262 58.8966L937.38 58.7196L916.768 163.486L916.687 163.899L916.984 164.196L939.729 186.941L940.083 187.295L940.554 187.125L986.247 170.676L986.685 170.518L986.759 170.058L1005.04 55.4196L1005.11 54.9444L1004.72 54.6597L982.994 38.718L982.682 38.4893L982.311 38.5956L939.359 50.882L938.896 51.0146L938.802 51.4878L937.433 58.4507L937.355 58.214L932.567 43.5436L932.405 43.0491L931.887 43.0029L841.923 34.9813L841.578 36.5055L907.422 61.0222L842.634 151.062L842.433 151.341L842.501 151.679L847.883 178.181L847.993 178.721L848.537 178.804L952.006 194.542ZM1102.59 197.075L1103 195.565L1020.54 162.219L1085.19 66.7669L1085.35 66.528L1085.32 66.2412L1083.18 46.2378L1083.12 45.5935L1082.47 45.536L992.506 37.5143L992.161 39.0386L1058.01 63.5553L993.218 153.595L993.017 153.874L993.085 154.212L998.467 180.714L998.576 181.254L999.121 181.337L1102.59 197.075ZM1134.8 151.707L1170.65 70.403L1170.79 70.085L1170.65 69.7669L1151.76 26.917L1151.25 25.7478L1150.43 26.7328L1051.84 146.042L1051.44 146.528L1051.82 147.026L1077.21 179.925L1077.53 180.338L1078.03 180.206L1117.17 169.979L1107.83 209.011L1109.32 209.513L1128.05 167.113L1187.39 151.572L1187.16 150.021L1134.8 151.707ZM164.336 152.44L241.013 79.0069L258.117 147.033L164.336 152.44ZM679.829 152.44L756.506 79.007L773.611 147.033L679.829 152.44ZM979.441 48.6523L979.91 75.0354L967.094 149.508L948.039 159.18L943.338 146.016L958.482 73.1193L979.441 48.6523ZM1083.33 153.422L1140.97 70.3272L1121.37 152.173L1083.33 153.422Z" stroke="#8B83FF" stroke-opacity="0.7" stroke-width="1.57695"/>
</svg>
