<svg width="96" height="96" viewBox="0 0 96 96" fill="none" xmlns="http://www.w3.org/2000/svg">
<g filter="url(#filter0_dii_4110_5649)">
<circle cx="47.5829" cy="43.5829" r="42.5829" fill="#2C2C29"/>
<circle cx="47.5829" cy="43.5829" r="42.0829" stroke="black"/>
</g>
<g filter="url(#filter1_d_4110_5649)">
<path fill-rule="evenodd" clip-rule="evenodd" d="M47.5 22.96C41.9226 22.96 41.2226 22.9837 39.0312 23.0832C36.8444 23.1827 35.3513 23.5303 34.0447 24.0375C32.675 24.5549 31.434 25.3635 30.4075 26.4075C29.3633 27.4345 28.5547 28.676 28.0375 30.0463C27.5303 31.3513 27.1843 32.8444 27.0832 35.0312C26.9837 37.2226 26.96 37.9226 26.96 43.5C26.96 49.0774 26.9837 49.7773 27.0832 51.9688C27.1827 54.1555 27.5303 55.6486 28.0375 56.9537C28.5637 58.3046 29.2652 59.4501 30.4075 60.5924C31.434 61.6364 32.675 62.445 34.0447 62.9624C35.3513 63.468 36.8444 63.8156 39.0312 63.9167C41.2226 64.0163 41.9226 64.04 47.5 64.04C53.0774 64.04 53.7773 64.0163 55.9688 63.9167C58.1555 63.8172 59.6486 63.4696 60.9537 62.9624C62.3239 62.4452 63.5654 61.6366 64.5924 60.5924C65.6366 59.5654 66.4452 58.3239 66.9624 56.9537C67.468 55.6486 67.8156 54.1555 67.9167 51.9688C68.0163 49.7773 68.04 49.0774 68.04 43.5C68.04 37.9226 68.0163 37.2226 67.9167 35.0312C67.8172 32.8444 67.4696 31.3513 66.9608 30.0463C66.4441 28.6762 65.636 27.4346 64.5924 26.4075C63.5654 25.3633 62.3239 24.5547 60.9537 24.0375C59.6486 23.5319 58.1555 23.1843 55.9688 23.0832C53.7773 22.9837 53.0774 22.96 47.5 22.96ZM47.5 26.6603C52.9841 26.6603 53.6335 26.6824 55.7997 26.7804C57.8016 26.872 58.8902 27.207 59.6138 27.4882C60.5729 27.8611 61.257 28.3051 61.9759 29.024C62.6948 29.7429 63.1388 30.427 63.5117 31.3861C63.7929 32.1097 64.1279 33.1968 64.2195 35.2002C64.3175 37.3648 64.3396 38.0158 64.3396 43.5C64.3396 48.9841 64.3175 49.6335 64.2195 51.7997C64.1279 53.8031 63.7929 54.8902 63.5117 55.6138C63.184 56.5067 62.6591 57.3141 61.9759 57.9759C61.3141 58.6591 60.5067 59.184 59.6138 59.5117C58.8902 59.7929 57.8016 60.1279 55.7997 60.2195C53.6351 60.3175 52.9841 60.3396 47.5 60.3396C42.0158 60.3396 41.3648 60.3175 39.2002 60.2195C37.1968 60.1279 36.1097 59.7929 35.3861 59.5117C34.4932 59.184 33.6858 58.6591 33.024 57.9759C32.3409 57.3141 31.8159 56.5067 31.4882 55.6138C31.207 54.8902 30.872 53.8031 30.7804 51.7997C30.6824 49.6351 30.6603 48.9841 30.6603 43.5C30.6603 38.0158 30.6824 37.3664 30.7804 35.2002C30.872 33.1968 31.207 32.1097 31.4882 31.3861C31.8611 30.427 32.3051 29.7429 33.024 29.024C33.6858 28.3409 34.4932 27.8159 35.3861 27.4882C36.1097 27.207 37.1968 26.872 39.2002 26.7804C41.3648 26.6824 42.0158 26.6603 47.5 26.6603Z" fill="#D4ADE3"/>
<path fill-rule="evenodd" clip-rule="evenodd" d="M47.5004 32.4399C44.5671 32.4399 41.754 33.6052 39.6798 35.6793C37.6057 37.7535 36.4404 40.5667 36.4404 43.4999C36.4404 46.4332 37.6057 49.2464 39.6798 51.3205C41.754 53.3947 44.5671 54.5599 47.5004 54.5599C50.4337 54.5599 53.2469 53.3947 55.321 51.3205C57.3952 49.2464 58.5604 46.4332 58.5604 43.4999C58.5604 40.5667 57.3952 37.7535 55.321 35.6793C53.2469 33.6052 50.4337 32.4399 47.5004 32.4399ZM47.5004 50.6099C45.6147 50.6099 43.8063 49.8609 42.4729 48.5275C41.1395 47.1941 40.3904 45.3856 40.3904 43.4999C40.3904 41.6143 41.1395 39.8058 42.4729 38.4724C43.8063 37.139 45.6147 36.3899 47.5004 36.3899C49.3861 36.3899 51.1946 37.139 52.528 38.4724C53.8613 39.8058 54.6104 41.6143 54.6104 43.4999C54.6104 45.3856 53.8613 47.1941 52.528 48.5275C51.1946 49.8609 49.3861 50.6099 47.5004 50.6099ZM61.2464 32.5979C61.2464 32.9299 61.181 33.2587 61.054 33.5654C60.927 33.8721 60.7407 34.1508 60.506 34.3855C60.2712 34.6203 59.9926 34.8065 59.6859 34.9335C59.3791 35.0606 59.0504 35.1259 58.7184 35.1259C58.3864 35.1259 58.0577 35.0606 57.751 34.9335C57.4443 34.8065 57.1656 34.6203 56.9309 34.3855C56.6961 34.1508 56.5099 33.8721 56.3829 33.5654C56.2558 33.2587 56.1904 32.9299 56.1904 32.5979C56.1904 31.9275 56.4568 31.2845 56.9309 30.8104C57.405 30.3363 58.048 30.0699 58.7184 30.0699C59.3889 30.0699 60.0319 30.3363 60.506 30.8104C60.9801 31.2845 61.2464 31.9275 61.2464 32.5979Z" fill="#D4ADE3"/>
</g>
<defs>
<filter id="filter0_dii_4110_5649" x="0" y="-3" width="95.166" height="98.1658" filterUnits="userSpaceOnUse" color-interpolation-filters="sRGB">
<feFlood flood-opacity="0" result="BackgroundImageFix"/>
<feColorMatrix in="SourceAlpha" type="matrix" values="0 0 0 0 0 0 0 0 0 0 0 0 0 0 0 0 0 0 127 0" result="hardAlpha"/>
<feMorphology radius="1" operator="dilate" in="SourceAlpha" result="effect1_dropShadow_4110_5649"/>
<feOffset dy="4"/>
<feGaussianBlur stdDeviation="2"/>
<feComposite in2="hardAlpha" operator="out"/>
<feColorMatrix type="matrix" values="0 0 0 0 0 0 0 0 0 0 0 0 0 0 0 0 0 0 0.37 0"/>
<feBlend mode="normal" in2="BackgroundImageFix" result="effect1_dropShadow_4110_5649"/>
<feBlend mode="normal" in="SourceGraphic" in2="effect1_dropShadow_4110_5649" result="shape"/>
<feColorMatrix in="SourceAlpha" type="matrix" values="0 0 0 0 0 0 0 0 0 0 0 0 0 0 0 0 0 0 127 0" result="hardAlpha"/>
<feOffset dx="-2" dy="5"/>
<feGaussianBlur stdDeviation="2"/>
<feComposite in2="hardAlpha" operator="arithmetic" k2="-1" k3="1"/>
<feColorMatrix type="matrix" values="0 0 0 0 1 0 0 0 0 1 0 0 0 0 1 0 0 0 0.25 0"/>
<feBlend mode="normal" in2="shape" result="effect2_innerShadow_4110_5649"/>
<feColorMatrix in="SourceAlpha" type="matrix" values="0 0 0 0 0 0 0 0 0 0 0 0 0 0 0 0 0 0 127 0" result="hardAlpha"/>
<feOffset dx="2" dy="-4"/>
<feGaussianBlur stdDeviation="2"/>
<feComposite in2="hardAlpha" operator="arithmetic" k2="-1" k3="1"/>
<feColorMatrix type="matrix" values="0 0 0 0 0 0 0 0 0 0 0 0 0 0 0 0 0 0 0.25 0"/>
<feBlend mode="normal" in2="effect2_innerShadow_4110_5649" result="effect3_innerShadow_4110_5649"/>
</filter>
<filter id="filter1_d_4110_5649" x="16.96" y="12.96" width="61.0801" height="61.08" filterUnits="userSpaceOnUse" color-interpolation-filters="sRGB">
<feFlood flood-opacity="0" result="BackgroundImageFix"/>
<feColorMatrix in="SourceAlpha" type="matrix" values="0 0 0 0 0 0 0 0 0 0 0 0 0 0 0 0 0 0 127 0" result="hardAlpha"/>
<feOffset/>
<feGaussianBlur stdDeviation="5"/>
<feComposite in2="hardAlpha" operator="out"/>
<feColorMatrix type="matrix" values="0 0 0 0 0.498039 0 0 0 0 0.243137 0 0 0 0 0.541176 0 0 0 1 0"/>
<feBlend mode="normal" in2="BackgroundImageFix" result="effect1_dropShadow_4110_5649"/>
<feBlend mode="normal" in="SourceGraphic" in2="effect1_dropShadow_4110_5649" result="shape"/>
</filter>
</defs>
</svg>
