<svg width="114" height="86" viewBox="0 0 114 86" fill="none" xmlns="http://www.w3.org/2000/svg">
<rect x="35.9497" y="40.1362" width="5.83069" height="5.86982" fill="black"/>
<rect x="43.9663" y="40.1362" width="5.83069" height="5.86982" fill="black"/>
<rect x="51.9839" y="40.1362" width="5.83069" height="5.86982" fill="black"/>
<rect x="60.001" y="40.1362" width="5.83069" height="5.86982" fill="black"/>
<rect x="73.8491" y="40.1362" width="5.83069" height="5.86982" fill="black"/>
<rect width="21.1422" height="5.85025" transform="matrix(0.704019 0.710181 -0.705455 0.708754 59.0273 23.9941)" fill="black"/>
<rect width="21.1429" height="5.85006" transform="matrix(-0.70062 0.713535 -0.708833 -0.705377 73.8604 47.9314)" fill="black"/>
<path d="M6.43233 36.8346L6.43408 15.1896L14.0859 7.48547L35.951 7.48547" stroke="black" stroke-width="0.6"/>
<path d="M78.2221 7.61787L99.3365 7.61786L107.021 15.2887L107.113 37.3004" stroke="black" stroke-width="0.6"/>
<path d="M107.147 49.8838L107.023 71.1396L99.3581 78.8305L77.4931 78.7929" stroke="black" stroke-width="0.6"/>
<path d="M35.9479 78.7135L14.3594 78.7135L6.76505 70.952L6.76505 48.9408" stroke="black" stroke-width="0.6"/>
</svg>
