<svg width="1440" height="50" viewBox="0 0 1440 50" fill="none" xmlns="http://www.w3.org/2000/svg">
<line y1="24.3538" x2="1440" y2="24.3538" stroke="white" stroke-width="1.29243"/>
<path d="M336.831 47V38.2727H340.274C340.933 38.2727 341.496 38.3906 341.961 38.6264C342.43 38.8594 342.787 39.1903 343.031 39.6193C343.278 40.0455 343.402 40.5469 343.402 41.1236C343.402 41.7031 343.277 42.2017 343.027 42.6193C342.777 43.0341 342.415 43.3523 341.94 43.5739C341.469 43.7955 340.898 43.9062 340.227 43.9062H337.922V42.4233H339.929C340.281 42.4233 340.574 42.375 340.807 42.2784C341.04 42.1818 341.213 42.0369 341.327 41.8438C341.443 41.6506 341.501 41.4105 341.501 41.1236C341.501 40.8338 341.443 40.5895 341.327 40.3906C341.213 40.1918 341.038 40.0412 340.802 39.9389C340.569 39.8338 340.275 39.7812 339.92 39.7812H338.676V47H336.831ZM341.544 43.0284L343.713 47H341.676L339.554 43.0284H341.544ZM344.706 38.2727H346.981L349.385 44.1364H349.487L351.89 38.2727H354.166V47H352.376V41.3196H352.304L350.045 46.9574H348.827L346.568 41.2983H346.496V47H344.706V38.2727Z" fill="white"/>
<circle cx="346" cy="25" r="6" fill="white"/>
<path d="M335.011 10.4659V9.01278L338.654 3.27273H339.907V5.28409H339.166L336.869 8.91903V8.98722H342.046V10.4659H335.011ZM339.2 12V10.0227L339.234 9.37926V3.27273H340.964V12H339.2ZM346.463 12.1193C345.861 12.1193 345.324 12.0085 344.852 11.7869C344.384 11.5653 344.012 11.2599 343.736 10.8707C343.46 10.4815 343.317 10.0355 343.306 9.53267H345.095C345.115 9.87074 345.257 10.1449 345.521 10.3551C345.786 10.5653 346.1 10.6705 346.463 10.6705C346.753 10.6705 347.009 10.6065 347.23 10.4787C347.455 10.348 347.629 10.1676 347.754 9.9375C347.882 9.70455 347.946 9.4375 347.946 9.13636C347.946 8.82955 347.881 8.55966 347.75 8.3267C347.622 8.09375 347.445 7.91193 347.218 7.78125C346.99 7.65057 346.73 7.58381 346.438 7.58097C346.182 7.58097 345.933 7.63352 345.692 7.73864C345.453 7.84375 345.267 7.98722 345.134 8.16903L343.493 7.875L343.906 3.27273H349.242V4.78125H345.428L345.202 6.96733H345.253C345.406 6.75142 345.638 6.57244 345.948 6.4304C346.257 6.28835 346.604 6.21733 346.987 6.21733C347.513 6.21733 347.982 6.34091 348.394 6.58807C348.806 6.83523 349.131 7.17472 349.369 7.60653C349.608 8.03551 349.726 8.52983 349.723 9.08949C349.726 9.67756 349.59 10.2003 349.314 10.6577C349.041 11.1122 348.659 11.4702 348.168 11.7315C347.679 11.9901 347.111 12.1193 346.463 12.1193ZM354.432 12.1918C353.699 12.1889 353.068 12.0085 352.54 11.6506C352.014 11.2926 351.61 10.7741 351.325 10.0952C351.044 9.41619 350.905 8.59943 350.908 7.64489C350.908 6.69318 351.048 5.8821 351.33 5.21165C351.614 4.54119 352.019 4.03125 352.544 3.68182C353.073 3.32955 353.702 3.15341 354.432 3.15341C355.162 3.15341 355.79 3.32955 356.316 3.68182C356.844 4.03409 357.25 4.54545 357.534 5.21591C357.818 5.88352 357.959 6.69318 357.956 7.64489C357.956 8.60227 357.814 9.42045 357.53 10.0994C357.249 10.7784 356.845 11.2969 356.32 11.6548C355.794 12.0128 355.165 12.1918 354.432 12.1918ZM354.432 10.6619C354.932 10.6619 355.331 10.4105 355.629 9.90767C355.928 9.40483 356.075 8.65057 356.073 7.64489C356.073 6.98295 356.004 6.43182 355.868 5.99148C355.735 5.55114 355.544 5.22017 355.297 4.99858C355.053 4.77699 354.764 4.66619 354.432 4.66619C353.935 4.66619 353.537 4.91477 353.239 5.41193C352.941 5.90909 352.79 6.65341 352.787 7.64489C352.787 8.31534 352.854 8.875 352.987 9.32386C353.124 9.76989 353.316 10.1051 353.563 10.3295C353.81 10.5511 354.1 10.6619 354.432 10.6619Z" fill="white"/>
<path d="M710.869 38.2727H713.144L715.548 44.1364H715.65L718.053 38.2727H720.329V47H718.539V41.3196H718.467L716.208 46.9574H714.989L712.731 41.2983H712.658V47H710.869V38.2727ZM727.24 38.2727H729.085V43.9403C729.085 44.5767 728.933 45.1335 728.629 45.6108C728.328 46.0881 727.906 46.4602 727.363 46.7273C726.821 46.9915 726.189 47.1236 725.467 47.1236C724.742 47.1236 724.109 46.9915 723.566 46.7273C723.024 46.4602 722.602 46.0881 722.301 45.6108C722 45.1335 721.849 44.5767 721.849 43.9403V38.2727H723.694V43.7827C723.694 44.1151 723.767 44.4105 723.912 44.669C724.059 44.9276 724.267 45.1307 724.534 45.2784C724.801 45.4261 725.112 45.5 725.467 45.5C725.825 45.5 726.136 45.4261 726.4 45.2784C726.667 45.1307 726.873 44.9276 727.018 44.669C727.166 44.4105 727.24 44.1151 727.24 43.7827V38.2727Z" fill="white"/>
<ellipse cx="720.5" cy="25" rx="6.27273" ry="6" fill="white"/>
<path d="M715.166 3.27273V12H713.321V5.02415H713.27L711.271 6.27699V4.64062L713.432 3.27273H715.166ZM721.037 3.27273V12H719.192V5.02415H719.141L717.143 6.27699V4.64062L719.303 3.27273H721.037ZM726.367 12.1193C725.711 12.1193 725.127 12.0128 724.616 11.7997C724.107 11.5838 723.708 11.2898 723.419 10.9176C723.129 10.5455 722.984 10.1236 722.984 9.65199C722.984 9.28835 723.066 8.95455 723.231 8.65057C723.399 8.34375 723.626 8.08949 723.913 7.88778C724.2 7.68324 724.521 7.55256 724.876 7.49574V7.43608C724.41 7.34233 724.032 7.11648 723.742 6.75852C723.453 6.39773 723.308 5.97869 723.308 5.50142C723.308 5.04972 723.44 4.64773 723.704 4.29545C723.968 3.94034 724.33 3.66193 724.791 3.46023C725.254 3.25568 725.779 3.15341 726.367 3.15341C726.955 3.15341 727.48 3.25568 727.94 3.46023C728.403 3.66477 728.767 3.9446 729.031 4.29972C729.295 4.65199 729.428 5.05256 729.431 5.50142C729.428 5.98153 729.281 6.40057 728.988 6.75852C728.695 7.11648 728.32 7.34233 727.863 7.43608V7.49574C728.213 7.55256 728.529 7.68324 728.813 7.88778C729.1 8.08949 729.328 8.34375 729.495 8.65057C729.666 8.95455 729.752 9.28835 729.755 9.65199C729.752 10.1236 729.606 10.5455 729.316 10.9176C729.026 11.2898 728.626 11.5838 728.115 11.7997C727.606 12.0128 727.024 12.1193 726.367 12.1193ZM726.367 10.7642C726.66 10.7642 726.916 10.7116 727.134 10.6065C727.353 10.4986 727.524 10.3509 727.646 10.1634C727.771 9.97301 727.833 9.75426 727.833 9.5071C727.833 9.25426 727.769 9.03125 727.642 8.83807C727.514 8.64205 727.34 8.48864 727.122 8.37784C726.903 8.2642 726.651 8.20739 726.367 8.20739C726.086 8.20739 725.835 8.2642 725.613 8.37784C725.392 8.48864 725.217 8.64205 725.089 8.83807C724.964 9.03125 724.901 9.25426 724.901 9.5071C724.901 9.75426 724.963 9.97301 725.085 10.1634C725.207 10.3509 725.379 10.4986 725.6 10.6065C725.822 10.7116 726.078 10.7642 726.367 10.7642ZM726.367 6.86506C726.612 6.86506 726.829 6.81534 727.019 6.71591C727.21 6.61648 727.359 6.47869 727.467 6.30256C727.575 6.12642 727.629 5.9233 727.629 5.69318C727.629 5.46591 727.575 5.26705 727.467 5.09659C727.359 4.9233 727.211 4.78835 727.024 4.69176C726.836 4.59233 726.617 4.54261 726.367 4.54261C726.12 4.54261 725.901 4.59233 725.711 4.69176C725.521 4.78835 725.372 4.9233 725.264 5.09659C725.159 5.26705 725.106 5.46591 725.106 5.69318C725.106 5.9233 725.16 6.12642 725.268 6.30256C725.376 6.47869 725.525 6.61648 725.715 6.71591C725.906 6.81534 726.123 6.86506 726.367 6.86506Z" fill="white"/>
<path d="M1093.52 41.3281H1091.65C1091.62 41.0866 1091.55 40.8722 1091.44 40.6847C1091.34 40.4943 1091.2 40.3324 1091.04 40.1989C1090.88 40.0653 1090.68 39.9631 1090.47 39.892C1090.26 39.821 1090.02 39.7855 1089.77 39.7855C1089.32 39.7855 1088.93 39.8977 1088.59 40.1222C1088.26 40.3437 1088 40.6676 1087.81 41.0938C1087.63 41.517 1087.54 42.0312 1087.54 42.6364C1087.54 43.2585 1087.63 43.7812 1087.81 44.2045C1088 44.6278 1088.26 44.9474 1088.6 45.1634C1088.93 45.3793 1089.32 45.4872 1089.76 45.4872C1090.01 45.4872 1090.24 45.4545 1090.45 45.3892C1090.66 45.3239 1090.85 45.2287 1091.01 45.1037C1091.18 44.9759 1091.32 44.821 1091.42 44.6392C1091.53 44.4574 1091.61 44.25 1091.65 44.017L1093.52 44.0256C1093.47 44.4261 1093.35 44.8125 1093.16 45.1847C1092.97 45.554 1092.71 45.8849 1092.39 46.1776C1092.07 46.4673 1091.68 46.6974 1091.24 46.8679C1090.79 47.0355 1090.29 47.1193 1089.73 47.1193C1088.95 47.1193 1088.26 46.9432 1087.64 46.5909C1087.03 46.2386 1086.55 45.7287 1086.19 45.0611C1085.84 44.3935 1085.67 43.5852 1085.67 42.6364C1085.67 41.6847 1085.85 40.875 1086.2 40.2074C1086.56 39.5398 1087.05 39.0312 1087.66 38.6818C1088.27 38.3295 1088.96 38.1534 1089.73 38.1534C1090.24 38.1534 1090.71 38.2244 1091.14 38.3665C1091.57 38.5085 1091.96 38.7159 1092.29 38.9886C1092.63 39.2585 1092.9 39.5895 1093.11 39.9815C1093.32 40.3736 1093.46 40.8224 1093.52 41.3281ZM1094.84 47V38.2727H1096.69V45.4787H1100.43V47H1094.84Z" fill="white"/>
<ellipse cx="1093.5" cy="25" rx="6.27273" ry="6" fill="white"/>
<path d="M1086.87 3.27273V12H1085.03V5.02415H1084.98L1082.98 6.27699V4.64062L1085.14 3.27273H1086.87ZM1088.81 10.4659V9.01278L1092.46 3.27273H1093.71V5.28409H1092.97L1090.67 8.91903V8.98722H1095.85V10.4659H1088.81ZM1093 12V10.0227L1093.04 9.37926V3.27273H1094.77V12H1093ZM1100.5 12.1918C1099.77 12.1889 1099.14 12.0085 1098.61 11.6506C1098.08 11.2926 1097.68 10.7741 1097.39 10.0952C1097.11 9.41619 1096.97 8.59943 1096.98 7.64489C1096.98 6.69318 1097.12 5.8821 1097.4 5.21165C1097.68 4.54119 1098.09 4.03125 1098.61 3.68182C1099.14 3.32955 1099.77 3.15341 1100.5 3.15341C1101.23 3.15341 1101.86 3.32955 1102.38 3.68182C1102.91 4.03409 1103.32 4.54545 1103.6 5.21591C1103.89 5.88352 1104.03 6.69318 1104.02 7.64489C1104.02 8.60227 1103.88 9.42045 1103.6 10.0994C1103.32 10.7784 1102.91 11.2969 1102.39 11.6548C1101.86 12.0128 1101.23 12.1918 1100.5 12.1918ZM1100.5 10.6619C1101 10.6619 1101.4 10.4105 1101.7 9.90767C1102 9.40483 1102.14 8.65057 1102.14 7.64489C1102.14 6.98295 1102.07 6.43182 1101.94 5.99148C1101.8 5.55114 1101.61 5.22017 1101.37 4.99858C1101.12 4.77699 1100.83 4.66619 1100.5 4.66619C1100 4.66619 1099.61 4.91477 1099.31 5.41193C1099.01 5.90909 1098.86 6.65341 1098.86 7.64489C1098.86 8.31534 1098.92 8.875 1099.06 9.32386C1099.19 9.76989 1099.38 10.1051 1099.63 10.3295C1099.88 10.5511 1100.17 10.6619 1100.5 10.6619Z" fill="white"/>
</svg>
