<svg width="27" height="27" viewBox="0 0 27 27" fill="none" xmlns="http://www.w3.org/2000/svg">
<path d="M13.2631 16.5948L14.9599 18.2916L20.0527 13.2L14.9611 8.1084L13.2643 9.8064L15.4567 12H6.41233V14.4H15.4567L13.2631 16.5948Z" fill="black"/>
<path fill-rule="evenodd" clip-rule="evenodd" d="M22.534 22.5336C27.6892 17.3784 27.6892 9.0216 22.534 3.8664C17.3788 -1.2888 9.02199 -1.2888 3.86679 3.8664C-1.28841 9.0216 -1.28841 17.3784 3.86679 22.5336C9.02199 27.6888 17.3788 27.6888 22.534 22.5336ZM20.8372 20.8368C22.8626 18.8114 24.0005 16.0644 24.0005 13.2C24.0005 10.3356 22.8626 7.5886 20.8372 5.5632C18.8118 3.53779 16.0647 2.39993 13.2004 2.39993C10.336 2.39993 7.589 3.53779 5.56359 5.5632C3.53819 7.5886 2.40033 10.3356 2.40033 13.2C2.40033 16.0644 3.53819 18.8114 5.56359 20.8368C7.589 22.8622 10.336 24.0001 13.2004 24.0001C16.0647 24.0001 18.8118 22.8622 20.8372 20.8368Z" fill="black"/>
</svg>
