<svg width="70" height="70" viewBox="0 0 70 70" fill="none" xmlns="http://www.w3.org/2000/svg">
<g filter="url(#filter0_b_5302_10458)">
<rect width="70" height="70" rx="8" fill="#CECECE" fill-opacity="0.07"/>
</g>
<rect x="9.77024" y="24.5923" width="50.7342" height="20.7843" rx="1.50439" fill="#181818" stroke="white" stroke-width="0.991219"/>
<rect x="52.4192" y="32" width="6.31558" height="6.57616" rx="0.495609" fill="#D9D9D9"/>
<path d="M55.5724 38.2117C57.1382 38.2117 58.4041 36.8906 58.4041 35.2651C58.4041 33.6397 57.1382 32.3186 55.5724 32.3186C54.0066 32.3186 52.7406 33.6397 52.7406 35.2651C52.7406 36.8906 54.0066 38.2117 55.5724 38.2117Z" fill="#FF0000" stroke="black" stroke-width="0.0991219"/>
<rect x="45" y="32" width="6.31558" height="6.57616" rx="0.495609" fill="#D9D9D9"/>
<path d="M48.1531 38.2117C49.7189 38.2117 50.9849 36.8906 50.9849 35.2651C50.9849 33.6397 49.7189 32.3186 48.1531 32.3186C46.5873 32.3186 45.3214 33.6397 45.3214 35.2651C45.3214 36.8906 46.5873 38.2117 48.1531 38.2117Z" fill="#FF0000" stroke="black" stroke-width="0.0991219"/>
<mask id="path-7-outside-1_5302_10458" maskUnits="userSpaceOnUse" x="12.4094" y="29.0439" width="14" height="14" fill="black">
<rect fill="white" x="12.4094" y="29.0439" width="14" height="14"/>
<path fill-rule="evenodd" clip-rule="evenodd" d="M21.1365 33.9443V30.0439H17.2729L17.2729 33.9443H13.4094V37.8437H17.2729L17.2729 41.7421H21.1365V37.8437H25V33.9443H21.1365Z"/>
</mask>
<path fill-rule="evenodd" clip-rule="evenodd" d="M21.1365 33.9443V30.0439H17.2729L17.2729 33.9443H13.4094V37.8437H17.2729L17.2729 41.7421H21.1365V37.8437H25V33.9443H21.1365Z" fill="#0F0F0F"/>
<path d="M21.1365 30.0439H22.1365V29.0439H21.1365V30.0439ZM21.1365 33.9443H20.1365V34.9443H21.1365V33.9443ZM17.2729 30.0439V29.0439H16.2729V30.0439L17.2729 30.0439ZM17.2729 33.9443V34.9443H18.2729V33.9443H17.2729ZM13.4094 33.9443V32.9443H12.4094V33.9443H13.4094ZM13.4094 37.8437H12.4094V38.8437H13.4094V37.8437ZM17.2729 37.8437H18.2729L18.2729 36.8437H17.2729V37.8437ZM17.2729 41.7421H16.2729V42.7421H17.2729V41.7421ZM21.1365 41.7421V42.7421H22.1365V41.7421H21.1365ZM21.1365 37.8437V36.8437H20.1365V37.8437H21.1365ZM25 37.8437V38.8437H26V37.8437H25ZM25 33.9443H26V32.9443H25V33.9443ZM20.1365 30.0439V33.9443H22.1365V30.0439H20.1365ZM17.2729 31.0439H21.1365V29.0439H17.2729V31.0439ZM18.2729 33.9443L18.2729 30.0439L16.2729 30.0439L16.2729 33.9443H18.2729ZM13.4094 34.9443H17.2729V32.9443H13.4094V34.9443ZM14.4094 37.8437V33.9443H12.4094V37.8437H14.4094ZM17.2729 36.8437H13.4094V38.8437H17.2729V36.8437ZM18.2729 41.7421V37.8437H16.2729L16.2729 41.7421H18.2729ZM21.1365 40.7421H17.2729V42.7421H21.1365V40.7421ZM20.1365 37.8437V41.7421H22.1365V37.8437H20.1365ZM25 36.8437H21.1365V38.8437H25V36.8437ZM24 33.9443V37.8437H26V33.9443H24ZM21.1365 34.9443H25V32.9443H21.1365V34.9443Z" fill="white" mask="url(#path-7-outside-1_5302_10458)"/>
<path d="M27.3997 25H44.9196V26.0176C44.9196 27.1124 44.032 28 42.9371 28H29.3821C28.2873 28 27.3997 27.1124 27.3997 26.0176V25Z" fill="#A5A5A5"/>
<path d="M26.5154 45H44.8695C44.8695 43.9051 43.9819 43 42.8871 43H28.4978C27.4029 43 26.5154 43.9051 26.5154 45Z" fill="#A5A5A5"/>
<rect x="28" y="33.4131" width="16" height="5.17305" rx="0.991219" fill="white"/>
<path d="M31.451 35.9434H33.0196" stroke="black" stroke-width="1.98244" stroke-linecap="round"/>
<path d="M38.9804 35.9434H40.549" stroke="black" stroke-width="1.98244" stroke-linecap="round"/>
<rect x="26.6407" y="24.0967" width="18.193" height="0.75984" fill="white"/>
<rect x="25.8137" y="44.9004" width="19.02" height="0.75984" fill="white"/>
<rect x="9" y="12" width="52" height="3" fill="white"/>
<rect x="9" y="55" width="52" height="3" fill="white"/>
<defs>
<filter id="filter0_b_5302_10458" x="-4" y="-4" width="78" height="78" filterUnits="userSpaceOnUse" color-interpolation-filters="sRGB">
<feFlood flood-opacity="0" result="BackgroundImageFix"/>
<feGaussianBlur in="BackgroundImageFix" stdDeviation="2"/>
<feComposite in2="SourceAlpha" operator="in" result="effect1_backgroundBlur_5302_10458"/>
<feBlend mode="normal" in="SourceGraphic" in2="effect1_backgroundBlur_5302_10458" result="shape"/>
</filter>
</defs>
</svg>
