<svg width="314" height="790" viewBox="0 0 314 790" fill="none" xmlns="http://www.w3.org/2000/svg">
<mask id="path-1-inside-1_5905_20779" fill="white">
<path fill-rule="evenodd" clip-rule="evenodd" d="M0.986328 788C0.986328 789.105 1.88176 790 2.98633 790H311.986C313.091 790 313.986 789.105 313.986 788V562.998L280.811 535.198L313.986 507.398V2C313.986 0.895432 313.091 0 311.986 0H2.98633C1.88177 0 0.986328 0.895431 0.986328 2V507.45L33.4879 534.196L0.986328 561.926V788Z"/>
</mask>
<path fill-rule="evenodd" clip-rule="evenodd" d="M0.986328 788C0.986328 789.105 1.88176 790 2.98633 790H311.986C313.091 790 313.986 789.105 313.986 788V562.998L280.811 535.198L313.986 507.398V2C313.986 0.895432 313.091 0 311.986 0H2.98633C1.88177 0 0.986328 0.895431 0.986328 2V507.45L33.4879 534.196L0.986328 561.926V788Z" fill="#EEEEEE"/>
<path d="M313.986 562.998H315.986V562.065L315.271 561.465L313.986 562.998ZM280.811 535.198L279.526 533.665L277.697 535.198L279.526 536.731L280.811 535.198ZM313.986 507.398L315.271 508.931L315.986 508.331V507.398H313.986ZM0.986328 507.45H-1.01367V508.394L-0.284529 508.994L0.986328 507.45ZM33.4879 534.196L34.786 535.718L36.6017 534.169L34.7587 532.652L33.4879 534.196ZM0.986328 561.926L-0.311784 560.405L-1.01367 561.004V561.926H0.986328ZM2.98633 788H-1.01367C-1.01367 790.209 0.777179 792 2.98633 792V788ZM311.986 788H2.98633V792H311.986V788ZM311.986 788V792C314.195 792 315.986 790.209 315.986 788H311.986ZM311.986 562.998V788H315.986V562.998H311.986ZM315.271 561.465L282.095 533.665L279.526 536.731L312.702 564.531L315.271 561.465ZM282.095 536.731L315.271 508.931L312.702 505.865L279.526 533.665L282.095 536.731ZM311.986 2V507.398H315.986V2H311.986ZM311.986 2V2H315.986C315.986 -0.209126 314.196 -2 311.986 -2V2ZM2.98633 2H311.986V-2H2.98633V2ZM2.98633 2H2.98633V-2C0.777204 -2 -1.01367 -0.209148 -1.01367 2H2.98633ZM2.98633 507.45V2H-1.01367V507.45H2.98633ZM34.7587 532.652L2.25719 505.906L-0.284529 508.994L32.217 535.741L34.7587 532.652ZM2.28444 563.448L34.786 535.718L32.1897 532.675L-0.311784 560.405L2.28444 563.448ZM2.98633 788V561.926H-1.01367V788H2.98633Z" fill="white" mask="url(#path-1-inside-1_5905_20779)"/>
<path fill-rule="evenodd" clip-rule="evenodd" d="M35 532.899C35 531.96 35.7611 531.199 36.7 531.199L41.0359 531.199C41.9748 531.199 42.7359 531.96 42.7359 532.899C42.7359 533.838 41.9748 534.599 41.0359 534.599L36.7 534.599C35.7611 534.599 35 533.838 35 532.899ZM50.9641 532.899C50.9641 531.96 51.7252 531.199 52.6641 531.199L61.3359 531.199C62.2748 531.199 63.0359 531.96 63.0359 532.899C63.0359 533.838 62.2748 534.599 61.3359 534.599L52.6641 534.599C51.7252 534.599 50.9641 533.838 50.9641 532.899ZM71.2641 532.899C71.2641 531.96 72.0252 531.199 72.9641 531.199L81.6359 531.199C82.5748 531.199 83.3359 531.96 83.3359 532.899C83.3359 533.838 82.5748 534.599 81.6359 534.599L72.9641 534.599C72.0252 534.599 71.2641 533.838 71.2641 532.899ZM91.5641 532.899C91.5641 531.96 92.3252 531.199 93.2641 531.199L101.936 531.199C102.875 531.199 103.636 531.96 103.636 532.899C103.636 533.838 102.875 534.599 101.936 534.599L93.2641 534.599C92.3252 534.599 91.5641 533.838 91.5641 532.899ZM111.864 532.899C111.864 531.96 112.625 531.199 113.564 531.199L122.236 531.199C123.175 531.199 123.936 531.96 123.936 532.899C123.936 533.838 123.175 534.599 122.236 534.599L113.564 534.599C112.625 534.599 111.864 533.838 111.864 532.899ZM132.164 532.899C132.164 531.96 132.925 531.199 133.864 531.199L142.536 531.199C143.475 531.199 144.236 531.96 144.236 532.899C144.236 533.838 143.475 534.599 142.536 534.599L133.864 534.599C132.925 534.599 132.164 533.838 132.164 532.899ZM152.464 532.899C152.464 531.96 153.225 531.199 154.164 531.199L162.836 531.199C163.775 531.199 164.536 531.96 164.536 532.899C164.536 533.838 163.775 534.599 162.836 534.599L154.164 534.599C153.225 534.599 152.464 533.838 152.464 532.899ZM172.764 532.899C172.764 531.96 173.525 531.199 174.464 531.199L183.136 531.199C184.075 531.199 184.836 531.96 184.836 532.899C184.836 533.838 184.075 534.599 183.136 534.599L174.464 534.599C173.525 534.599 172.764 533.838 172.764 532.899ZM193.064 532.899C193.064 531.96 193.825 531.199 194.764 531.199L203.436 531.199C204.375 531.199 205.136 531.96 205.136 532.899C205.136 533.838 204.375 534.599 203.436 534.599L194.764 534.599C193.825 534.599 193.064 533.838 193.064 532.899ZM213.364 532.899C213.364 531.96 214.125 531.199 215.064 531.199L223.736 531.199C224.675 531.199 225.436 531.96 225.436 532.899C225.436 533.838 224.675 534.599 223.736 534.599L215.064 534.599C214.125 534.599 213.364 533.838 213.364 532.899ZM233.664 532.899C233.664 531.96 234.425 531.199 235.364 531.199L244.036 531.199C244.975 531.199 245.736 531.96 245.736 532.899C245.736 533.838 244.975 534.599 244.036 534.599L235.364 534.599C234.425 534.599 233.664 533.838 233.664 532.899ZM253.964 532.899C253.964 531.96 254.725 531.199 255.664 531.199L264.336 531.199C265.275 531.199 266.036 531.96 266.036 532.899C266.036 533.838 265.275 534.599 264.336 534.599L255.664 534.599C254.725 534.599 253.964 533.838 253.964 532.899ZM274.264 532.899C274.264 531.96 275.025 531.199 275.964 531.199L280.3 531.199C281.239 531.199 282 531.96 282 532.899C282 533.838 281.239 534.599 280.3 534.599L275.964 534.599C275.025 534.599 274.264 533.838 274.264 532.899Z" fill="black"/>
</svg>
