<svg width="39" height="39" viewBox="0 0 39 39" fill="none" xmlns="http://www.w3.org/2000/svg">
<circle cx="19.5" cy="19.5" r="19.5" fill="url(#paint0_linear_3106_3968)"/>
<circle cx="19.5" cy="19.5" r="18.5" fill="url(#paint1_linear_3106_3968)"/>
<path d="M13.8238 13.1734L12.2279 14.7392C11.9783 14.9842 11.9782 15.3861 12.2278 15.6311L14.9549 18.307C16.2275 19.5557 15.6366 20.9085 15.1822 21.4288L12.8561 24.0624C12.504 24.461 12.5256 25.0656 12.9052 25.4381L13.92 26.4338C14.349 26.8548 15.0562 26.8085 15.4779 26.3802C16.1235 25.7244 17.0613 24.9137 18.1364 24.3276C19.7725 23.4356 21.0906 24.1046 21.5451 24.5506L24.0001 26.6154C24.4073 26.9579 25.0113 26.9215 25.3745 26.5328L26.4406 25.3916C26.8555 24.9474 26.7871 24.2294 26.3403 23.8174C25.7253 23.2504 24.9516 22.429 24.2721 21.4288C23.1813 19.8233 23.9691 18.3813 24.4993 17.861L26.4989 15.899C26.8983 15.507 26.8983 14.8634 26.4989 14.4714L25.3801 13.3737C24.9264 12.9285 24.1655 13.0075 23.7482 13.4871C23.1705 14.1512 22.3349 14.9659 21.3178 15.6312C19.6817 16.7015 18.3636 16.0772 17.9091 15.6312L15.1995 13.1497C14.8075 12.7907 14.2032 12.8011 13.8238 13.1734Z" fill="url(#paint2_angular_3106_3968)"/>
<defs>
<linearGradient id="paint0_linear_3106_3968" x1="7.5" y1="4.5" x2="32" y2="35" gradientUnits="userSpaceOnUse">
<stop stop-color="#D9D9D9"/>
<stop offset="1" stop-color="#737373"/>
</linearGradient>
<linearGradient id="paint1_linear_3106_3968" x1="19.5" y1="1" x2="19.5" y2="38" gradientUnits="userSpaceOnUse">
<stop stop-color="#7E7E7E"/>
<stop offset="0.5" stop-color="#B3B3B3"/>
<stop offset="1" stop-color="#7E7E7E"/>
</linearGradient>
<radialGradient id="paint2_angular_3106_3968" cx="0" cy="0" r="1" gradientUnits="userSpaceOnUse" gradientTransform="translate(19.1604 19.8679) rotate(55.8401) scale(8.61907 9.05002)">
<stop offset="0.06" stop-color="#8E8E8E"/>
<stop offset="0.214464" stop-color="#555555"/>
<stop offset="0.34" stop-color="#8E8E8E"/>
<stop offset="0.47" stop-color="#606060"/>
<stop offset="0.6049" stop-color="#8E8E8E"/>
<stop offset="0.73" stop-color="#606060"/>
<stop offset="0.85" stop-color="#8E8E8E"/>
<stop offset="0.96" stop-color="#606060"/>
</radialGradient>
</defs>
</svg>
