<svg width="138" height="44" viewBox="0 0 138 44" fill="none" xmlns="http://www.w3.org/2000/svg">
<path d="M5.31781 44H0.491211V0H5.31781V44ZM10.1444 43.9688H7.69281V0H10.1444V43.9688ZM17.346 43.9688H14.971V0H17.346V43.9688ZM29.3742 43.9688H26.9992V0H29.3742V43.9688ZM41.4024 43.9688H36.6524V0H41.4024V43.9688ZM51.0556 43.9688H48.6806V0H51.0556V43.9688ZM55.8822 43.9688H53.5072V0H55.8822V43.9688ZM60.7088 43.9688H58.3338V0H60.7088V43.9688ZM72.737 43.9688H67.9104V0H72.737V43.9688ZM84.7652 43.9688H79.9386V0H84.7652V43.9688ZM94.4184 43.9688H89.5918V0H94.4184V43.9688ZM104.072 43.9688H99.245V0H104.072V43.9688ZM111.273 43.9688H106.447V0H111.273V43.9688ZM125.753 43.9688H118.551V0H125.753V43.9688ZM130.58 43.9688H128.128V0H130.58V43.9688ZM137.781 44H132.955V0H137.781V44Z" fill="white"/>
</svg>
