<svg width="1188" height="246" viewBox="0 0 1188 246" fill="black" xmlns="http://www.w3.org/2000/svg">
<path d="M98.4156 245.705L121.388 164.542L140.985 185.929L141.323 186.297L141.8 186.149L258.413 149.997L262.134 224.083L262.242 226.235L263.548 224.521L295.417 182.732L295.658 182.416L295.547 182.034L265.777 79.6373L291.806 88.0584L292.051 88.1375L292.295 88.0573L338.515 72.8819L335.526 126.836L294.697 131.711L294.79 133.282H335.169L329.47 236.142L331.023 236.373L356.239 133.282H391.001L386.419 156.099L386.377 156.307L386.446 156.509L403.809 207.279L404.737 209.992L405.327 207.186L420.728 133.906L485.728 135.392L476.995 175.684L476.869 176.265L477.392 176.546L504.808 191.269L505.736 191.767L505.953 190.737L535.849 48.7729L593.395 197.865L593.858 199.064L594.717 198.108L620.839 169.023L621.495 169.558L641.68 186.007L641.983 186.254L642.363 186.162L773.882 154.458L790.433 214.747L791.026 216.904L791.917 214.852L811.007 170.885L811.124 170.615L811.035 170.334L768.287 34.9807L767.914 33.7994L767.002 34.6376L621.46 168.366L621.286 168.525L758.602 15.6401L757.72 14.3825L704.106 36.1121L703.951 36.1751L703.835 36.2958L603.037 140.917L584.588 77.4419L584.518 77.1993L584.32 77.0429L532.578 36.2238L530.735 34.7705L515.326 4.80179L514.333 2.87208L513.855 4.98864L490.931 106.485L424.624 115.607L446.327 37.46L469.99 29.6717L469.596 28.1482L440.829 33.6362L414.34 20.9012L413.423 20.4606L413.225 21.458L409.617 39.5907L350.318 50.9035L260.775 62.4334L252.799 34.9981L252.442 33.7682L251.504 34.6413L124.721 152.768L148.774 67.7858L240.971 29.6513L240.545 28.1441L0.707755 66.4247L0.589322 67.9535L62.7318 88.0584L62.9355 88.1243L63.1446 88.0781L105.803 78.6556L96.8696 245.448L98.4156 245.705ZM373.841 61.3169L407.498 50.2395L393.638 119.898L358.486 124.095L373.841 61.3169ZM951.839 194.705L952.253 193.194L869.786 159.846L937.094 59.0589L937.212 58.8819L916.6 163.649L916.519 164.061L916.816 164.359L939.561 187.104L939.915 187.457L940.386 187.288L986.079 170.838L986.517 170.681L986.591 170.221L1004.87 55.582L1004.94 55.1067L1004.56 54.8221L982.826 38.8803L982.514 38.6517L982.143 38.758L939.191 51.0443L938.728 51.177L938.635 51.6502L937.265 58.613L937.187 58.3764L932.399 43.706L932.237 43.2115L931.719 43.1653L841.755 35.1436L841.41 36.6679L907.254 61.1846L842.466 151.224L842.265 151.504L842.333 151.841L847.715 178.343L847.825 178.883L848.369 178.966L951.839 194.705ZM1102.42 197.238L1102.84 195.727L1020.38 162.382L1085.02 66.9292L1085.18 66.6904L1085.15 66.4035L1083.02 46.4001L1082.95 45.7559L1082.3 45.6984L992.338 37.6767L991.993 39.201L1057.84 63.7177L993.05 153.757L992.849 154.037L992.917 154.375L998.299 180.877L998.409 181.416L998.953 181.499L1102.42 197.238ZM1134.64 151.869L1170.48 70.5653L1170.62 70.2473L1170.48 69.9293L1151.6 27.0794L1151.08 25.9102L1150.27 26.8951L1051.67 146.205L1051.27 146.69L1051.65 147.189L1077.04 180.088L1077.36 180.501L1077.86 180.369L1117 170.141L1107.66 209.174L1109.15 209.676L1127.88 167.275L1187.22 151.734L1187 150.183L1134.64 151.869ZM164.168 152.602L240.845 79.1693L257.95 147.195L164.168 152.602ZM679.661 152.602L756.338 79.1693L773.443 147.195L679.661 152.602ZM979.273 48.8146L979.742 75.1977L966.926 149.671L947.871 159.342L943.17 146.178L958.315 73.2817L979.273 48.8146ZM1083.17 153.584L1140.8 70.4895L1121.21 152.336L1083.17 153.584Z" stroke="#8B83FF" stroke-opacity="0.7" stroke-width="1.57695"/>
</svg>
