<svg width="780" height="312" viewBox="0 0 780 312" fill="none" xmlns="http://www.w3.org/2000/svg">
<g filter="url(#filter0_d_3051_4148)">
<path d="M0 38C0 18.1178 16.1177 2 36 2H126.608C137.654 2 146.608 10.9543 146.608 22V285.688C146.608 296.733 137.653 305.688 126.608 305.688H36C16.1177 305.688 0 289.57 0 269.688V38Z" fill="#5E5E66"/>
<path d="M36 2.5H126.608C137.377 2.5 146.108 11.2304 146.108 22V285.688C146.108 296.457 137.377 305.188 126.608 305.188H36C16.3939 305.188 0.5 289.294 0.5 269.688V38C0.5 18.3939 16.3939 2.5 36 2.5Z" stroke="black"/>
</g>
<g filter="url(#filter1_i_3051_4148)">
<path d="M10.5153 47.8339C10.4912 35.6837 20.3214 25.8126 32.4716 25.7863L113.693 25.6103C125.844 25.584 135.713 35.4124 135.737 47.5626L136.164 262.993C136.188 275.143 126.358 285.014 114.208 285.041L32.9858 285.217C20.8356 285.243 10.9663 275.415 10.9423 263.264L10.5153 47.8339Z" fill="#8143F0"/>
</g>
<path d="M32.4726 26.2863L113.694 26.1103C125.569 26.0846 135.213 35.6896 135.237 47.5637L135.664 262.994C135.688 274.868 126.081 284.515 114.207 284.541L32.9848 284.717C21.1107 284.743 11.4658 275.137 11.4423 263.263L11.0153 47.8328C10.9917 35.9587 20.5985 26.312 32.4726 26.2863Z" stroke="black"/>
<path fill-rule="evenodd" clip-rule="evenodd" d="M26.3496 72.2043C25.245 72.2043 24.3496 71.3088 24.3496 70.2043V44.8672C24.3496 43.7626 25.245 42.8672 26.3496 42.8672H120.56C121.664 42.8672 122.56 43.7626 122.56 44.8672V70.2043C122.56 71.3088 121.664 72.2043 120.56 72.2043H26.3496ZM26.3496 75.2043C25.245 75.2043 24.3496 76.0997 24.3496 77.2043V102.541C24.3496 103.646 25.245 104.541 26.3496 104.541H120.56C121.664 104.541 122.56 103.646 122.56 102.541V77.2043C122.56 76.0997 121.664 75.2043 120.56 75.2043H26.3496ZM26.3496 136.878C25.245 136.878 24.3496 135.983 24.3496 134.878V109.541C24.3496 108.437 25.245 107.541 26.3496 107.541H120.56C121.664 107.541 122.56 108.437 122.56 109.541V134.878C122.56 135.983 121.664 136.878 120.56 136.878H26.3496ZM26.3496 139.878C25.245 139.878 24.3496 140.774 24.3496 141.878V167.216C24.3496 168.32 25.245 169.216 26.3496 169.216H120.56C121.664 169.216 122.56 168.32 122.56 167.216V141.878C122.56 140.774 121.664 139.878 120.56 139.878H26.3496ZM26.3496 201.553C25.245 201.553 24.3496 200.657 24.3496 199.553V174.216C24.3496 173.111 25.245 172.216 26.3496 172.216H120.56C121.664 172.216 122.56 173.111 122.56 174.216V199.553C122.56 200.657 121.664 201.553 120.56 201.553H26.3496ZM26.3496 204.553C25.245 204.553 24.3496 205.448 24.3496 206.553V231.89C24.3496 232.994 25.245 233.89 26.3496 233.89H120.56C121.664 233.89 122.56 232.994 122.56 231.89V206.553C122.56 205.448 121.664 204.553 120.56 204.553H26.3496ZM26.3496 267.633C25.245 267.633 24.3496 266.737 24.3496 265.633V238.89C24.3496 237.785 25.245 236.89 26.3496 236.89H120.56C121.664 236.89 122.56 237.785 122.56 238.89V265.633C122.56 266.737 121.664 267.633 120.56 267.633H26.3496Z" fill="#13171F"/>
<rect x="24.3496" y="42.8672" width="98.2102" height="28.1192" rx="2" fill="#4F406F"/>
<rect x="24.3496" y="75.2051" width="98.2102" height="28.1192" rx="2" fill="#4F406F"/>
<g filter="url(#filter2_d_3051_4148)">
<path d="M147 38.652C147 12.6261 153.045 2 179.07 2H721.65C747.676 2 768.774 23.0981 768.774 49.1239V128.594C768.774 142.853 762.318 156.346 751.213 165.291L589.877 295.261C581.501 302.008 571.069 305.688 560.314 305.688H181.034C155.008 305.688 147 295.061 147 269.036V38.652Z" fill="#5E5E66"/>
<path d="M179.07 2.5H721.65C747.4 2.5 768.274 23.3742 768.274 49.1239V128.594C768.274 142.702 761.886 156.051 750.899 164.902L589.563 294.872C581.276 301.547 570.955 305.188 560.314 305.188H181.034C168.07 305.188 159.743 302.538 154.631 296.789C149.505 291.024 147.5 282.025 147.5 269.036V38.652C147.5 25.6416 149.02 16.6417 153.665 10.8801C158.284 5.15071 166.104 2.5 179.07 2.5Z" stroke="black"/>
</g>
<g filter="url(#filter3_i_3051_4148)">
<rect x="204.596" y="34.7246" width="416.261" height="171.479" fill="#8143F0"/>
</g>
<rect x="205.096" y="35.2246" width="415.261" height="170.479" stroke="black"/>
<g filter="url(#filter4_ii_3051_4148)">
<rect x="446.761" y="236.311" width="128.282" height="28.798" rx="14.399" fill="#2C2C29"/>
</g>
<rect x="447.261" y="236.811" width="127.282" height="27.798" rx="13.899" stroke="black"/>
<g filter="url(#filter5_ii_3051_4148)">
<rect x="284.445" y="236.311" width="128.282" height="28.798" rx="14.399" fill="#2C2C29"/>
</g>
<rect x="284.945" y="236.811" width="127.282" height="27.798" rx="13.899" stroke="black"/>
<path d="M242.967 96.408V77.98H240.247V81.04H236.813V77.64H239.907V74.546H249.495V77.64H252.623V81.04H249.155V77.98H246.435V96.408H242.967ZM256.443 96.408V93.348H253.349V83.794H256.443V80.7H266.031V83.794H269.159V93.008H272.253V96.408H268.819V93.348H266.031V96.408H256.443ZM256.783 93.008H265.691V84.1H256.783V93.008ZM278.76 96.408V93.348H275.7V84.1H272.606V80.7H275.7V74.546H279.1V80.7H288.416V84.1H279.1V93.008H288.076V89.914H291.51V93.348H288.416V96.408H278.76ZM294.952 96.408V74.546H298.386V83.794H301.106V80.7H307.634V83.794H310.762V96.408H307.294V84.1H301.446V87.16H298.386V96.408H294.952ZM319.693 96.408V93.348H316.599V87.16H313.505V80.7H316.939V86.82H319.999V93.008H322.787V86.82H325.847V80.7H329.315V87.16H326.187V93.348H323.127V96.408H319.693ZM335.167 96.408V93.348H332.073V83.794H335.167V80.7H344.755V83.794H347.883V93.008H350.977V96.408H347.543V93.348H344.755V96.408H335.167ZM335.507 93.008H344.415V84.1H335.507V93.008ZM245.116 122.04V118.946H243.62V117.11H245.116V115.546H247.02V117.416H245.456V118.606H248.584V122.04H245.116ZM262.585 137.408V134.348H259.491V127.82H262.585V124.794H271.833V118.98H262.925V122.04H259.491V118.64H262.585V115.546H272.173V118.64H275.301V125.1H272.173V128.16H262.925V134.008H271.833V130.914H275.301V134.348H272.173V137.408H262.585ZM291.755 137.408V131.254H279.413V124.794H282.507V121.7H285.567V118.64H288.695V115.546H295.223V137.408H291.755ZM282.847 127.82H291.755V118.98H289.035V122.04H285.907V125.1H282.847V127.82Z" fill="black"/>
<path d="M425.715 85.7674V82.7074H422.621V66.9994H425.715V63.9054H435.303V66.9994H438.431V73.4594H435.303V76.1794H438.431V82.7074H435.303V85.7674H425.715ZM426.055 82.3674H434.963V76.5194H428.775V73.1534H434.963V67.3394H426.055V82.3674ZM442.543 85.7674V70.0594H445.977V85.7674H442.543ZM442.543 67.3394V63.9054H445.977V67.3394H442.543ZM452.51 91.9214V88.8614H449.416V85.4614H452.85V88.5214H461.792V82.7074H452.51V79.6134H449.416V73.1534H452.51V70.0594H462.132V73.1534H465.226V88.8614H462.132V91.9214H452.51ZM452.85 79.2734H461.792V73.4594H452.85V79.2734ZM471.768 91.9214V88.8614H468.674V85.4614H472.108V88.5214H481.05V82.7074H471.768V79.6134H468.674V73.1534H471.768V70.0594H481.39V73.1534H484.484V88.8614H481.39V91.9214H471.768ZM472.108 79.2734H481.05V73.4594H472.108V79.2734ZM490.66 85.7674V82.7074H487.566V73.1534H490.66V70.0594H500.248V73.1534H503.376V76.5194H499.908V73.4594H491V76.1794H497.188V79.6134H491V82.3674H499.908V79.2394H503.376V82.6734H500.248V85.7674H490.66ZM507.488 85.7674V82.3674H519.83V79.6134H510.582V76.5194H507.488V73.1534H510.582V70.0594H523.298V73.4594H510.922V76.1794H520.17V79.2734H523.298V82.7074H520.17V85.7674H507.488ZM533.564 85.7674V82.7074H530.504V73.4594H527.41V70.0594H530.504V63.9054H533.904V70.0594H543.22V73.4594H533.904V82.3674H542.88V79.2734H546.314V82.7074H543.22V85.7674H533.564ZM428.775 126.767V123.707H425.715V114.459H422.621V111.059H425.715V104.905H429.115V111.059H438.431V114.459H429.115V123.367H438.091V120.273H441.525V123.707H438.431V126.767H428.775ZM447.696 126.767V123.707H444.602V114.153H447.696V111.059H457.284V114.153H460.412V117.519H456.944V114.459H448.036V117.179H454.224V120.613H448.036V123.367H456.944V120.239H460.412V123.673H457.284V126.767H447.696ZM467.617 126.767V123.707H464.523V114.153H467.617V111.059H477.205V114.153H480.333V117.519H476.865V114.459H467.957V123.367H476.865V120.273H480.333V123.707H477.205V126.767H467.617ZM483.781 126.767V104.905H487.215V114.153H489.935V111.059H496.463V114.153H499.591V126.767H496.123V114.459H490.275V117.519H487.215V126.767H483.781ZM510.51 126.767V107.999H513.604V104.905H523.192V107.999H526.32V111.399H522.852V108.339H513.944V114.153H520.132V117.519H513.944V126.767H510.51ZM530.139 126.767V123.707H527.045V114.153H530.139V111.059H539.727V114.153H542.855V117.519H539.387V114.459H530.479V117.179H536.667V120.613H530.479V123.367H539.387V120.239H542.855V123.673H539.727V126.767H530.139ZM546.967 126.767V123.367H559.309V120.613H550.061V117.519H546.967V114.153H550.061V111.059H562.777V114.459H550.401V117.179H559.649V120.273H562.777V123.707H559.649V126.767H546.967ZM573.043 126.767V123.707H569.983V114.459H566.889V111.059H569.983V104.905H573.383V111.059H582.699V114.459H573.383V123.367H582.359V120.273H585.793V123.707H582.699V126.767H573.043ZM422.621 167.767V152.059H426.055V167.767H422.621ZM422.621 149.339V145.905H426.055V149.339H422.621ZM429.494 167.767V152.059H442.176V155.153H445.304V167.767H441.836V155.459H432.928V167.767H429.494ZM456.223 167.767V164.367H459.317V149.339H456.223V145.905H465.845V149.339H462.717V164.367H465.845V167.767H456.223ZM468.939 167.767V152.059H481.621V155.153H484.749V167.767H481.281V155.459H472.373V167.767H468.939ZM491.291 167.767V164.707H488.197V155.153H491.291V152.059H500.573V145.905H504.007V164.707H500.879V167.767H491.291ZM491.631 164.367H500.539V155.459H491.631V164.367ZM508.119 167.767V152.059H511.553V167.767H508.119ZM508.119 149.339V145.905H511.553V149.339H508.119ZM518.086 167.767V164.707H514.992V155.153H518.086V152.059H527.674V155.153H530.802V164.367H533.896V167.767H530.462V164.707H527.674V167.767H518.086ZM518.426 164.367H527.334V155.459H518.426V164.367Z" fill="black"/>
<path d="M389.581 48.4859H392.914V59.1119H389.581V48.4859ZM389.581 63.0845H392.914V73.7105H389.581V63.0845ZM389.581 77.6831H392.914V88.3091H389.581V77.6831ZM389.581 92.2818H392.914V102.908H389.581V92.2818ZM389.581 106.88H392.914V117.506H389.581V106.88ZM389.581 121.479H392.914V132.105H389.581V121.479ZM389.581 136.078H392.914V146.704H389.581V136.078ZM389.581 150.676H392.914V161.302H389.581V150.676ZM389.581 165.275H392.914V175.901H389.581V165.275ZM389.581 179.874H392.914V190.5H389.581V179.874Z" fill="black"/>
<g filter="url(#filter6_d_3051_4148)">
<circle cx="210.485" cy="250.055" r="25.5255" fill="url(#paint0_linear_3051_4148)"/>
<circle cx="210.485" cy="250.054" r="24.2165" fill="url(#paint1_linear_3051_4148)"/>
<path d="M203.264 241.568L200.966 243.823C200.639 244.144 200.639 244.67 200.966 244.991L204.536 248.493C206.201 250.128 205.428 251.899 204.833 252.58L201.594 256.247C201.242 256.646 201.264 257.25 201.643 257.623L203.43 259.376C203.859 259.797 204.565 259.75 204.977 259.313C205.821 258.419 207.152 257.218 208.7 256.374C210.842 255.207 212.567 256.082 213.162 256.666L216.6 259.558C217.007 259.9 217.611 259.864 217.975 259.475L219.813 257.507C220.228 257.063 220.159 256.347 219.703 255.945C218.864 255.204 217.722 254.037 216.732 252.58C215.304 250.478 216.335 248.591 217.029 247.91L219.871 245.121C220.271 244.729 220.271 244.085 219.871 243.693L217.91 241.769C217.456 241.323 216.698 241.403 216.293 241.893C215.538 242.806 214.349 244.02 212.865 244.991C210.723 246.392 208.998 245.574 208.403 244.991L204.64 241.545C204.248 241.186 203.643 241.196 203.264 241.568Z" fill="url(#paint2_angular_3051_4148)"/>
</g>
<circle cx="692.198" cy="87.7401" r="43.8514" fill="url(#paint3_linear_3051_4148)"/>
<g filter="url(#filter7_i_3051_4148)">
<circle cx="692.198" cy="87.7392" r="34.6885" fill="#47474F"/>
</g>
<circle cx="692.198" cy="87.7392" r="35.6885" stroke="black" stroke-opacity="0.68" stroke-width="2"/>
<path d="M699.657 73.2428C699.921 72.8455 700.332 72.5694 700.8 72.4753C701.268 72.3811 701.754 72.4765 702.151 72.7406C704.627 74.3817 706.657 76.6104 708.061 79.2276C709.465 81.8448 710.199 84.769 710.197 87.739C710.197 97.6797 702.139 105.738 692.198 105.738C682.257 105.738 674.199 97.6797 674.199 87.739C674.197 84.769 674.931 81.8448 676.335 79.2276C677.739 76.6104 679.769 74.3817 682.245 72.7406C682.642 72.4764 683.129 72.381 683.597 72.4753C684.065 72.5697 684.476 72.846 684.74 73.2437C685.004 73.6413 685.1 74.1276 685.005 74.5956C684.911 75.0636 684.635 75.475 684.237 75.7392C681.66 77.4493 679.702 79.9439 678.652 82.8536C677.603 85.7633 677.519 88.9335 678.412 91.8949C679.305 94.8562 681.128 97.4512 683.611 99.2958C686.094 101.14 689.105 102.136 692.198 102.136C695.291 102.136 698.302 101.14 700.785 99.2958C703.268 97.4512 705.091 94.8562 705.984 91.8949C706.877 88.9335 706.792 85.7633 705.743 82.8536C704.694 79.9439 702.736 77.4493 700.159 75.7392C699.962 75.6085 699.792 75.4402 699.66 75.2439C699.528 75.0477 699.436 74.8273 699.389 74.5955C699.343 74.3636 699.342 74.1248 699.387 73.8927C699.433 73.6606 699.526 73.4398 699.657 73.2428ZM692.198 69.7402C692.639 69.7403 693.064 69.9021 693.394 70.1951C693.723 70.488 693.934 70.8917 693.985 71.3295L693.998 71.5401V89.5388C693.997 89.9976 693.822 90.4388 693.507 90.7724C693.192 91.106 692.761 91.3067 692.303 91.3336C691.845 91.3605 691.395 91.2115 691.043 90.9171C690.691 90.6226 690.465 90.205 690.411 89.7494L690.398 89.5388V71.5401C690.398 71.0628 690.588 70.6049 690.925 70.2674C691.263 69.9299 691.721 69.7402 692.198 69.7402Z" fill="#212121"/>
<defs>
<filter id="filter0_d_3051_4148" x="0" y="0" width="157.607" height="311.688" filterUnits="userSpaceOnUse" color-interpolation-filters="sRGB">
<feFlood flood-opacity="0" result="BackgroundImageFix"/>
<feColorMatrix in="SourceAlpha" type="matrix" values="0 0 0 0 0 0 0 0 0 0 0 0 0 0 0 0 0 0 127 0" result="hardAlpha"/>
<feOffset dx="7" dy="2"/>
<feGaussianBlur stdDeviation="2"/>
<feComposite in2="hardAlpha" operator="out"/>
<feColorMatrix type="matrix" values="0 0 0 0 0 0 0 0 0 0 0 0 0 0 0 0 0 0 0.25 0"/>
<feBlend mode="normal" in2="BackgroundImageFix" result="effect1_dropShadow_3051_4148"/>
<feBlend mode="normal" in="SourceGraphic" in2="effect1_dropShadow_3051_4148" result="shape"/>
</filter>
<filter id="filter1_i_3051_4148" x="10.5156" y="25.6094" width="129.648" height="263.607" filterUnits="userSpaceOnUse" color-interpolation-filters="sRGB">
<feFlood flood-opacity="0" result="BackgroundImageFix"/>
<feBlend mode="normal" in="SourceGraphic" in2="BackgroundImageFix" result="shape"/>
<feColorMatrix in="SourceAlpha" type="matrix" values="0 0 0 0 0 0 0 0 0 0 0 0 0 0 0 0 0 0 127 0" result="hardAlpha"/>
<feOffset dx="7" dy="7"/>
<feGaussianBlur stdDeviation="2"/>
<feComposite in2="hardAlpha" operator="arithmetic" k2="-1" k3="1"/>
<feColorMatrix type="matrix" values="0 0 0 0 0 0 0 0 0 0 0 0 0 0 0 0 0 0 0.25 0"/>
<feBlend mode="normal" in2="shape" result="effect1_innerShadow_3051_4148"/>
</filter>
<filter id="filter2_d_3051_4148" x="147" y="0" width="632.774" height="311.688" filterUnits="userSpaceOnUse" color-interpolation-filters="sRGB">
<feFlood flood-opacity="0" result="BackgroundImageFix"/>
<feColorMatrix in="SourceAlpha" type="matrix" values="0 0 0 0 0 0 0 0 0 0 0 0 0 0 0 0 0 0 127 0" result="hardAlpha"/>
<feOffset dx="7" dy="2"/>
<feGaussianBlur stdDeviation="2"/>
<feComposite in2="hardAlpha" operator="out"/>
<feColorMatrix type="matrix" values="0 0 0 0 0 0 0 0 0 0 0 0 0 0 0 0 0 0 0.25 0"/>
<feBlend mode="normal" in2="BackgroundImageFix" result="effect1_dropShadow_3051_4148"/>
<feBlend mode="normal" in="SourceGraphic" in2="effect1_dropShadow_3051_4148" result="shape"/>
</filter>
<filter id="filter3_i_3051_4148" x="204.596" y="34.7246" width="422.262" height="177.479" filterUnits="userSpaceOnUse" color-interpolation-filters="sRGB">
<feFlood flood-opacity="0" result="BackgroundImageFix"/>
<feBlend mode="normal" in="SourceGraphic" in2="BackgroundImageFix" result="shape"/>
<feColorMatrix in="SourceAlpha" type="matrix" values="0 0 0 0 0 0 0 0 0 0 0 0 0 0 0 0 0 0 127 0" result="hardAlpha"/>
<feOffset dx="10" dy="10"/>
<feGaussianBlur stdDeviation="3"/>
<feComposite in2="hardAlpha" operator="arithmetic" k2="-1" k3="1"/>
<feColorMatrix type="matrix" values="0 0 0 0 0 0 0 0 0 0 0 0 0 0 0 0 0 0 0.25 0"/>
<feBlend mode="normal" in2="shape" result="effect1_innerShadow_3051_4148"/>
</filter>
<filter id="filter4_ii_3051_4148" x="445.761" y="234.311" width="129.282" height="33.7988" filterUnits="userSpaceOnUse" color-interpolation-filters="sRGB">
<feFlood flood-opacity="0" result="BackgroundImageFix"/>
<feBlend mode="normal" in="SourceGraphic" in2="BackgroundImageFix" result="shape"/>
<feColorMatrix in="SourceAlpha" type="matrix" values="0 0 0 0 0 0 0 0 0 0 0 0 0 0 0 0 0 0 127 0" result="hardAlpha"/>
<feOffset dx="-1" dy="3"/>
<feGaussianBlur stdDeviation="1.5"/>
<feComposite in2="hardAlpha" operator="arithmetic" k2="-1" k3="1"/>
<feColorMatrix type="matrix" values="0 0 0 0 1 0 0 0 0 1 0 0 0 0 1 0 0 0 1 0"/>
<feBlend mode="normal" in2="shape" result="effect1_innerShadow_3051_4148"/>
<feColorMatrix in="SourceAlpha" type="matrix" values="0 0 0 0 0 0 0 0 0 0 0 0 0 0 0 0 0 0 127 0" result="hardAlpha"/>
<feOffset dy="-3"/>
<feGaussianBlur stdDeviation="1"/>
<feComposite in2="hardAlpha" operator="arithmetic" k2="-1" k3="1"/>
<feColorMatrix type="matrix" values="0 0 0 0 0 0 0 0 0 0 0 0 0 0 0 0 0 0 0.4 0"/>
<feBlend mode="normal" in2="effect1_innerShadow_3051_4148" result="effect2_innerShadow_3051_4148"/>
</filter>
<filter id="filter5_ii_3051_4148" x="283.445" y="234.311" width="129.282" height="33.7988" filterUnits="userSpaceOnUse" color-interpolation-filters="sRGB">
<feFlood flood-opacity="0" result="BackgroundImageFix"/>
<feBlend mode="normal" in="SourceGraphic" in2="BackgroundImageFix" result="shape"/>
<feColorMatrix in="SourceAlpha" type="matrix" values="0 0 0 0 0 0 0 0 0 0 0 0 0 0 0 0 0 0 127 0" result="hardAlpha"/>
<feOffset dx="-1" dy="3"/>
<feGaussianBlur stdDeviation="1.5"/>
<feComposite in2="hardAlpha" operator="arithmetic" k2="-1" k3="1"/>
<feColorMatrix type="matrix" values="0 0 0 0 1 0 0 0 0 1 0 0 0 0 1 0 0 0 1 0"/>
<feBlend mode="normal" in2="shape" result="effect1_innerShadow_3051_4148"/>
<feColorMatrix in="SourceAlpha" type="matrix" values="0 0 0 0 0 0 0 0 0 0 0 0 0 0 0 0 0 0 127 0" result="hardAlpha"/>
<feOffset dy="-3"/>
<feGaussianBlur stdDeviation="1"/>
<feComposite in2="hardAlpha" operator="arithmetic" k2="-1" k3="1"/>
<feColorMatrix type="matrix" values="0 0 0 0 0 0 0 0 0 0 0 0 0 0 0 0 0 0 0.4 0"/>
<feBlend mode="normal" in2="effect1_innerShadow_3051_4148" result="effect2_innerShadow_3051_4148"/>
</filter>
<filter id="filter6_d_3051_4148" x="182.96" y="223.529" width="59.0508" height="59.0508" filterUnits="userSpaceOnUse" color-interpolation-filters="sRGB">
<feFlood flood-opacity="0" result="BackgroundImageFix"/>
<feColorMatrix in="SourceAlpha" type="matrix" values="0 0 0 0 0 0 0 0 0 0 0 0 0 0 0 0 0 0 127 0" result="hardAlpha"/>
<feOffset dx="2" dy="3"/>
<feGaussianBlur stdDeviation="2"/>
<feComposite in2="hardAlpha" operator="out"/>
<feColorMatrix type="matrix" values="0 0 0 0 0 0 0 0 0 0 0 0 0 0 0 0 0 0 0.25 0"/>
<feBlend mode="normal" in2="BackgroundImageFix" result="effect1_dropShadow_3051_4148"/>
<feBlend mode="normal" in="SourceGraphic" in2="effect1_dropShadow_3051_4148" result="shape"/>
</filter>
<filter id="filter7_i_3051_4148" x="655.51" y="51.0508" width="73.377" height="75.377" filterUnits="userSpaceOnUse" color-interpolation-filters="sRGB">
<feFlood flood-opacity="0" result="BackgroundImageFix"/>
<feBlend mode="normal" in="SourceGraphic" in2="BackgroundImageFix" result="shape"/>
<feColorMatrix in="SourceAlpha" type="matrix" values="0 0 0 0 0 0 0 0 0 0 0 0 0 0 0 0 0 0 127 0" result="hardAlpha"/>
<feOffset dy="2"/>
<feGaussianBlur stdDeviation="1.1"/>
<feComposite in2="hardAlpha" operator="arithmetic" k2="-1" k3="1"/>
<feColorMatrix type="matrix" values="0 0 0 0 0.658824 0 0 0 0 0.658824 0 0 0 0 0.658824 0 0 0 1 0"/>
<feBlend mode="normal" in2="shape" result="effect1_innerShadow_3051_4148"/>
</filter>
<linearGradient id="paint0_linear_3051_4148" x1="194.777" y1="230.42" x2="226.848" y2="270.344" gradientUnits="userSpaceOnUse">
<stop stop-color="#D9D9D9"/>
<stop offset="1" stop-color="#737373"/>
</linearGradient>
<linearGradient id="paint1_linear_3051_4148" x1="210.485" y1="225.838" x2="210.485" y2="274.271" gradientUnits="userSpaceOnUse">
<stop stop-color="#7E7E7E"/>
<stop offset="0.5" stop-color="#B3B3B3"/>
<stop offset="1" stop-color="#7E7E7E"/>
</linearGradient>
<radialGradient id="paint2_angular_3051_4148" cx="0" cy="0" r="1" gradientUnits="userSpaceOnUse" gradientTransform="translate(210.041 250.537) rotate(55.8401) scale(11.2823 11.8465)">
<stop offset="0.06" stop-color="#8E8E8E"/>
<stop offset="0.214464" stop-color="#555555"/>
<stop offset="0.34" stop-color="#8E8E8E"/>
<stop offset="0.47" stop-color="#606060"/>
<stop offset="0.6049" stop-color="#8E8E8E"/>
<stop offset="0.73" stop-color="#606060"/>
<stop offset="0.85" stop-color="#8E8E8E"/>
<stop offset="0.96" stop-color="#606060"/>
</radialGradient>
<linearGradient id="paint3_linear_3051_4148" x1="692.198" y1="43.8887" x2="692.198" y2="131.592" gradientUnits="userSpaceOnUse">
<stop stop-color="#555555"/>
<stop offset="0.3" stop-color="#585858"/>
<stop offset="1" stop-color="#BBBBBB"/>
</linearGradient>
</defs>
</svg>
