<svg width="196" height="85" viewBox="0 0 196 85" fill="none" xmlns="http://www.w3.org/2000/svg">
<path d="M195.315 5.68317L194.757 80.7146C194.746 82.3071 193.445 83.5898 191.852 83.5796L4.30156 82.3731C2.70899 82.3629 1.42754 81.0636 1.43936 79.471L1.99031 5.26793L2.00376 3.45668C2.03381 1.37075 2.87019 0.672992 6.3527 0.666738L187.408 1.8314L189.572 1.84532C194.254 1.91706 195.308 2.80429 195.315 5.68317Z" fill="#140F0F" stroke="#E2DBCB" stroke-width="0.961223"/>
<path d="M182.399 9.80763H188.071V10.6727H182.399V9.80763ZM182.399 10.9611H188.071V11.2495H182.399V10.9611ZM182.399 11.5378H188.071V11.8262H182.399V11.5378ZM182.399 12.1146H188.071V12.9797H182.399V12.1146ZM182.399 13.8448H188.071V14.1331H182.399V13.8448ZM182.399 14.426H188.071V15.2911H182.399V14.426ZM182.399 15.5795H188.071V15.8678H182.399V15.5795ZM182.399 16.1562H188.071V17.0213H182.399V16.1562ZM182.399 17.8864H188.071V18.1748H182.399V17.8864ZM182.399 18.4631H188.071V18.7515H182.399V18.4631ZM182.399 19.0444H188.071V19.3327H182.399V19.0444ZM182.399 19.6211H188.071V19.9095H182.399V19.6211ZM182.399 20.1978H188.071V20.4862H182.399V20.1978ZM182.399 21.3513H188.071V22.2164H182.399V21.3513ZM182.399 22.5048H188.071V23.3699H182.399V22.5048ZM182.399 23.6628H188.071V23.9511H182.399V23.6628ZM182.399 24.8162H188.071V25.6813H182.399V24.8162ZM182.399 25.9697H188.071V26.2581H182.399V25.9697ZM182.399 26.5464H188.071V27.4115H182.399V26.5464ZM182.399 27.6999H188.071V27.9883H182.399V27.6999ZM182.399 28.2811H188.071V28.5695H182.399V28.2811ZM182.399 29.4346H188.071V30.2997H182.399V29.4346ZM182.399 30.5881H188.071V30.8764H182.399V30.5881ZM182.399 31.1648H188.071V32.0299H182.399V31.1648ZM182.399 32.3183H188.071V32.6066H182.399V32.3183ZM182.399 32.8995H188.071V33.1879H182.399V32.8995ZM182.399 33.4762H188.071V34.3413H182.399V33.4762ZM182.399 34.6297H188.071V35.4948H182.399V34.6297ZM182.399 36.3599H188.071V36.6483H182.399V36.3599ZM182.399 36.9366H188.071V37.225H182.399V36.9366ZM182.399 37.5179H188.071V38.383H182.399V37.5179ZM182.399 38.6714H188.071V38.9597H182.399V38.6714ZM182.399 39.2481H188.071V40.1132H182.399V39.2481ZM182.399 40.9783H188.071V41.2667H182.399V40.9783ZM182.399 41.555H188.071V41.8434H182.399V41.555ZM182.399 42.1363H188.071V42.4246H182.399V42.1363ZM182.399 42.713H188.071V43.0014H182.399V42.713ZM182.399 43.2897H188.071V44.1548H182.399V43.2897ZM182.399 45.0199H188.071V45.3083H182.399V45.0199ZM182.399 45.5967H188.071V46.4618H182.399V45.5967ZM182.399 46.7546H188.071V47.043H182.399V46.7546ZM182.399 47.3314H188.071V47.6197H182.399V47.3314ZM182.399 47.9081H188.071V48.7732H182.399V47.9081ZM182.399 49.6383H188.071V50.5034H182.399V49.6383ZM182.399 50.7918H188.071V51.0801H182.399V50.7918ZM182.399 51.373H188.071V52.2381H182.399V51.373ZM182.399 52.5265H188.071V52.8148H182.399V52.5265ZM182.399 53.1032H188.071V53.3916H182.399V53.1032ZM182.399 54.2567H188.071V54.545H182.399V54.2567ZM182.399 54.8334H188.071V55.6985H182.399V54.8334ZM182.399 55.9914H188.071V56.2797H182.399V55.9914ZM182.399 56.5681H188.071V56.8565H182.399V56.5681ZM182.399 57.1448H188.071V57.4332H182.399V57.1448ZM182.399 58.2983H188.071V59.1634H182.399V58.2983ZM182.399 59.4518H188.071V60.3169H182.399V59.4518ZM182.399 60.6098H188.071V60.8981H182.399V60.6098ZM182.399 61.1865H188.071V61.4749H182.399V61.1865ZM182.399 61.7632H188.071V62.6283H182.399V61.7632ZM182.399 63.4934H188.071V63.7818H182.399V63.4934ZM182.399 64.0702H188.071V64.9353H182.399V64.0702ZM182.399 65.2281H188.071V65.5165H182.399V65.2281ZM182.399 65.8049H188.071V66.67H182.399V65.8049ZM182.399 66.9583H188.071V67.8234H182.399V66.9583ZM182.399 68.6885H188.071V68.9769H182.399V68.6885ZM182.399 69.2653H188.071V69.5536H182.399V69.2653ZM182.399 69.8465H188.071V70.7116H182.399V69.8465ZM182.399 71H188.071V71.2883H182.399V71ZM182.399 71.5767H188.071V72.4418H182.399V71.5767ZM182.399 73.3069H188.071V73.5953H182.399V73.3069ZM182.399 73.8836H188.071V74.172H182.399V73.8836Z" fill="white"/>
</svg>
