<svg width="316" height="159" viewBox="0 0 316 159" fill="none" xmlns="http://www.w3.org/2000/svg">
<rect x="6.5" y="4.5" width="303" height="154" rx="20.5" fill="#9C9C9C" fill-opacity="0.66" stroke="black"/>
<g filter="url(#filter0_ddii_3051_4125)">
<rect x="6" y="7" width="304" height="71" rx="24" fill="#242422"/>
<rect x="6.5" y="7.5" width="303" height="70" rx="23.5" stroke="black"/>
</g>
<path d="M47.6875 112.273V124.016H50.2422C50.4766 124.016 50.6445 124.062 50.7461 124.156C50.8477 124.242 50.8984 124.359 50.8984 124.508C50.8984 124.648 50.8477 124.766 50.7461 124.859C50.6445 124.953 50.4766 125 50.2422 125H44.1367C43.9023 125 43.7344 124.953 43.6328 124.859C43.5312 124.766 43.4805 124.648 43.4805 124.508C43.4805 124.359 43.5312 124.242 43.6328 124.156C43.7344 124.062 43.9023 124.016 44.1367 124.016H46.6914V112.273H42.6602V115.684C42.6602 115.926 42.6133 116.098 42.5195 116.199C42.4336 116.301 42.3164 116.352 42.168 116.352C42.0273 116.352 41.9102 116.301 41.8164 116.199C41.7227 116.098 41.6758 115.926 41.6758 115.684V111.289H52.7031V115.684C52.7031 115.926 52.6562 116.098 52.5625 116.199C52.4766 116.301 52.3594 116.352 52.2109 116.352C52.0625 116.352 51.9414 116.301 51.8477 116.199C51.7617 116.098 51.7188 115.926 51.7188 115.684V112.273H47.6875ZM66.9414 120.16H56.9102C57.082 121.434 57.6133 122.461 58.5039 123.242C59.4023 124.016 60.5117 124.402 61.832 124.402C62.5664 124.402 63.3359 124.281 64.1406 124.039C64.9453 123.797 65.6016 123.477 66.1094 123.078C66.2578 122.961 66.3867 122.902 66.4961 122.902C66.6211 122.902 66.7305 122.953 66.8242 123.055C66.918 123.148 66.9648 123.262 66.9648 123.395C66.9648 123.527 66.9023 123.656 66.7773 123.781C66.4023 124.172 65.7344 124.539 64.7734 124.883C63.8203 125.219 62.8398 125.387 61.832 125.387C60.1445 125.387 58.7344 124.836 57.6016 123.734C56.4766 122.625 55.9141 121.285 55.9141 119.715C55.9141 118.285 56.4414 117.059 57.4961 116.035C58.5586 115.012 59.8711 114.5 61.4336 114.5C63.043 114.5 64.3672 115.027 65.4062 116.082C66.4453 117.129 66.957 118.488 66.9414 120.16ZM65.9453 119.164C65.75 118.078 65.2344 117.195 64.3984 116.516C63.5703 115.836 62.582 115.496 61.4336 115.496C60.2852 115.496 59.2969 115.832 58.4688 116.504C57.6406 117.176 57.125 118.062 56.9219 119.164H65.9453ZM74.8516 114.852V117.336C76.1328 116.18 77.0898 115.438 77.7227 115.109C78.3633 114.773 78.9531 114.605 79.4922 114.605C80.0781 114.605 80.6211 114.805 81.1211 115.203C81.6289 115.594 81.8828 115.891 81.8828 116.094C81.8828 116.242 81.832 116.367 81.7305 116.469C81.6367 116.562 81.5156 116.609 81.3672 116.609C81.2891 116.609 81.2227 116.598 81.168 116.574C81.1133 116.543 81.0117 116.453 80.8633 116.305C80.5898 116.031 80.3516 115.844 80.1484 115.742C79.9453 115.641 79.7461 115.59 79.5508 115.59C79.1211 115.59 78.6016 115.762 77.9922 116.105C77.3906 116.449 76.3438 117.289 74.8516 118.625V124.016H79.2109C79.4531 124.016 79.625 124.062 79.7266 124.156C79.8281 124.242 79.8789 124.359 79.8789 124.508C79.8789 124.648 79.8281 124.766 79.7266 124.859C79.625 124.953 79.4531 125 79.2109 125H71.4883C71.2539 125 71.0859 124.957 70.9844 124.871C70.8828 124.777 70.832 124.66 70.832 124.52C70.832 124.387 70.8789 124.277 70.9727 124.191C71.0742 124.098 71.2461 124.051 71.4883 124.051H73.8672V115.848H72.0508C71.8164 115.848 71.6484 115.801 71.5469 115.707C71.4453 115.613 71.3945 115.492 71.3945 115.344C71.3945 115.203 71.4414 115.086 71.5352 114.992C71.6367 114.898 71.8086 114.852 72.0508 114.852H74.8516ZM85.9609 114.852V115.848C86.7969 114.949 87.6367 114.5 88.4805 114.5C88.9883 114.5 89.4336 114.637 89.8164 114.91C90.1992 115.176 90.5195 115.582 90.7773 116.129C91.2148 115.582 91.6562 115.176 92.1016 114.91C92.5547 114.637 93.0078 114.5 93.4609 114.5C94.1719 114.5 94.7383 114.73 95.1602 115.191C95.7148 115.785 95.9922 116.434 95.9922 117.137V124.016H96.8242C97.0586 124.016 97.2266 124.062 97.3281 124.156C97.4297 124.242 97.4805 124.359 97.4805 124.508C97.4805 124.648 97.4297 124.766 97.3281 124.859C97.2266 124.953 97.0586 125 96.8242 125H95.0078V117.23C95.0078 116.73 94.8555 116.316 94.5508 115.988C94.2461 115.66 93.8945 115.496 93.4961 115.496C93.1367 115.496 92.7578 115.633 92.3594 115.906C91.9609 116.172 91.5078 116.699 91 117.488V124.016H91.8203C92.0547 124.016 92.2227 124.062 92.3242 124.156C92.4258 124.242 92.4766 124.359 92.4766 124.508C92.4766 124.648 92.4258 124.766 92.3242 124.859C92.2227 124.953 92.0547 125 91.8203 125H90.0039V117.301C90.0039 116.777 89.8477 116.348 89.5352 116.012C89.2305 115.668 88.8867 115.496 88.5039 115.496C88.1523 115.496 87.8047 115.609 87.4609 115.836C86.9844 116.156 86.4844 116.707 85.9609 117.488V124.016H86.793C87.0273 124.016 87.1953 124.062 87.2969 124.156C87.3984 124.242 87.4492 124.359 87.4492 124.508C87.4492 124.648 87.3984 124.766 87.2969 124.859C87.1953 124.953 87.0273 125 86.793 125H84.1445C83.9102 125 83.7422 124.953 83.6406 124.859C83.5391 124.766 83.4883 124.648 83.4883 124.508C83.4883 124.359 83.5391 124.242 83.6406 124.156C83.7422 124.062 83.9102 124.016 84.1445 124.016H84.9766V115.848H84.1445C83.9102 115.848 83.7422 115.801 83.6406 115.707C83.5391 115.613 83.4883 115.492 83.4883 115.344C83.4883 115.203 83.5391 115.086 83.6406 114.992C83.7422 114.898 83.9102 114.852 84.1445 114.852H85.9609ZM108.109 115.496C108.109 115.27 108.156 115.105 108.25 115.004C108.344 114.902 108.461 114.852 108.602 114.852C108.75 114.852 108.871 114.902 108.965 115.004C109.059 115.105 109.105 115.277 109.105 115.52V117.207C109.105 117.441 109.059 117.609 108.965 117.711C108.871 117.812 108.75 117.863 108.602 117.863C108.469 117.863 108.355 117.82 108.262 117.734C108.176 117.648 108.125 117.508 108.109 117.312C108.062 116.844 107.82 116.457 107.383 116.152C106.742 115.715 105.895 115.496 104.84 115.496C103.738 115.496 102.883 115.719 102.273 116.164C101.812 116.5 101.582 116.875 101.582 117.289C101.582 117.758 101.855 118.148 102.402 118.461C102.777 118.68 103.488 118.848 104.535 118.965C105.902 119.113 106.852 119.281 107.383 119.469C108.141 119.742 108.703 120.121 109.07 120.605C109.445 121.09 109.633 121.613 109.633 122.176C109.633 123.012 109.23 123.758 108.426 124.414C107.621 125.062 106.441 125.387 104.887 125.387C103.332 125.387 102.059 124.992 101.066 124.203C101.066 124.469 101.051 124.641 101.02 124.719C100.988 124.797 100.93 124.863 100.844 124.918C100.766 124.973 100.676 125 100.574 125C100.434 125 100.316 124.949 100.223 124.848C100.129 124.746 100.082 124.578 100.082 124.344V122.316C100.082 122.082 100.125 121.914 100.211 121.812C100.305 121.711 100.426 121.66 100.574 121.66C100.715 121.66 100.832 121.711 100.926 121.812C101.027 121.906 101.078 122.035 101.078 122.199C101.078 122.559 101.168 122.859 101.348 123.102C101.621 123.477 102.055 123.789 102.648 124.039C103.25 124.281 103.984 124.402 104.852 124.402C106.133 124.402 107.086 124.164 107.711 123.688C108.336 123.211 108.648 122.707 108.648 122.176C108.648 121.566 108.332 121.078 107.699 120.711C107.059 120.344 106.125 120.098 104.898 119.973C103.68 119.848 102.805 119.684 102.273 119.48C101.742 119.277 101.328 118.973 101.031 118.566C100.734 118.16 100.586 117.723 100.586 117.254C100.586 116.41 101 115.742 101.828 115.25C102.656 114.75 103.645 114.5 104.793 114.5C106.152 114.5 107.258 114.832 108.109 115.496ZM139.188 119.949C139.188 121.449 138.648 122.73 137.57 123.793C136.5 124.855 135.207 125.387 133.691 125.387C132.16 125.387 130.859 124.855 129.789 123.793C128.719 122.723 128.184 121.441 128.184 119.949C128.184 118.449 128.719 117.168 129.789 116.105C130.859 115.035 132.16 114.5 133.691 114.5C135.207 114.5 136.5 115.031 137.57 116.094C138.648 117.156 139.188 118.441 139.188 119.949ZM138.191 119.949C138.191 118.715 137.75 117.664 136.867 116.797C135.992 115.93 134.93 115.496 133.68 115.496C132.43 115.496 131.363 115.934 130.48 116.809C129.605 117.676 129.168 118.723 129.168 119.949C129.168 121.168 129.605 122.215 130.48 123.09C131.363 123.965 132.43 124.402 133.68 124.402C134.93 124.402 135.992 123.969 136.867 123.102C137.75 122.227 138.191 121.176 138.191 119.949ZM147.449 115.848V124.016H151.773C152.008 124.016 152.176 124.062 152.277 124.156C152.379 124.242 152.43 124.359 152.43 124.508C152.43 124.648 152.379 124.766 152.277 124.859C152.176 124.953 152.008 125 151.773 125H144.074C143.84 125 143.672 124.953 143.57 124.859C143.469 124.766 143.418 124.648 143.418 124.508C143.418 124.359 143.469 124.242 143.57 124.156C143.672 124.062 143.84 124.016 144.074 124.016H146.453V115.848H144.32C144.086 115.848 143.918 115.801 143.816 115.707C143.715 115.613 143.664 115.492 143.664 115.344C143.664 115.203 143.715 115.086 143.816 114.992C143.918 114.898 144.086 114.852 144.32 114.852H146.453V113.363C146.453 112.535 146.789 111.816 147.461 111.207C148.133 110.598 149.023 110.293 150.133 110.293C151.062 110.293 152.055 110.379 153.109 110.551C153.508 110.613 153.746 110.688 153.824 110.773C153.91 110.859 153.953 110.973 153.953 111.113C153.953 111.254 153.906 111.371 153.812 111.465C153.719 111.551 153.594 111.594 153.438 111.594C153.375 111.594 153.27 111.582 153.121 111.559C151.941 111.379 150.945 111.289 150.133 111.289C149.273 111.289 148.609 111.5 148.141 111.922C147.68 112.344 147.449 112.824 147.449 113.363V114.852H152.055C152.289 114.852 152.457 114.898 152.559 114.992C152.66 115.086 152.711 115.207 152.711 115.355C152.711 115.496 152.66 115.613 152.559 115.707C152.457 115.801 152.289 115.848 152.055 115.848H147.449ZM180.449 112.273V111.945C180.449 111.711 180.492 111.543 180.578 111.441C180.672 111.34 180.793 111.289 180.941 111.289C181.09 111.289 181.207 111.34 181.293 111.441C181.387 111.543 181.434 111.711 181.434 111.945V114.453C181.434 114.688 181.387 114.855 181.293 114.957C181.207 115.059 181.09 115.109 180.941 115.109C180.801 115.109 180.684 115.062 180.59 114.969C180.504 114.875 180.457 114.723 180.449 114.512C180.41 113.855 180.07 113.266 179.43 112.742C178.797 112.219 177.965 111.957 176.934 111.957C175.848 111.957 174.984 112.238 174.344 112.801C173.703 113.355 173.383 114.012 173.383 114.77C173.383 115.16 173.473 115.516 173.652 115.836C173.832 116.156 174.07 116.418 174.367 116.621C174.664 116.816 175 116.977 175.375 117.102C175.75 117.219 176.336 117.344 177.133 117.477C178.469 117.695 179.391 117.918 179.898 118.145C180.578 118.449 181.09 118.871 181.434 119.41C181.785 119.949 181.961 120.586 181.961 121.32C181.961 122.445 181.512 123.406 180.613 124.203C179.715 124.992 178.504 125.387 176.98 125.387C175.27 125.387 173.902 124.852 172.879 123.781V124.344C172.879 124.578 172.832 124.746 172.738 124.848C172.652 124.949 172.535 125 172.387 125C172.246 125 172.129 124.949 172.035 124.848C171.941 124.746 171.895 124.578 171.895 124.344V121.625C171.895 121.383 171.938 121.211 172.023 121.109C172.117 121.008 172.238 120.957 172.387 120.957C172.527 120.957 172.641 121.004 172.727 121.098C172.82 121.191 172.871 121.344 172.879 121.555C172.918 122.273 173.301 122.93 174.027 123.523C174.762 124.109 175.746 124.402 176.98 124.402C178.215 124.402 179.188 124.094 179.898 123.477C180.617 122.859 180.977 122.129 180.977 121.285C180.977 120.77 180.84 120.312 180.566 119.914C180.293 119.508 179.887 119.188 179.348 118.953C178.973 118.789 178.191 118.605 177.004 118.402C175.371 118.129 174.195 117.711 173.477 117.148C172.758 116.586 172.398 115.785 172.398 114.746C172.398 113.715 172.809 112.828 173.629 112.086C174.457 111.344 175.547 110.973 176.898 110.973C178.273 110.973 179.457 111.406 180.449 112.273ZM196.668 120.16H186.637C186.809 121.434 187.34 122.461 188.23 123.242C189.129 124.016 190.238 124.402 191.559 124.402C192.293 124.402 193.062 124.281 193.867 124.039C194.672 123.797 195.328 123.477 195.836 123.078C195.984 122.961 196.113 122.902 196.223 122.902C196.348 122.902 196.457 122.953 196.551 123.055C196.645 123.148 196.691 123.262 196.691 123.395C196.691 123.527 196.629 123.656 196.504 123.781C196.129 124.172 195.461 124.539 194.5 124.883C193.547 125.219 192.566 125.387 191.559 125.387C189.871 125.387 188.461 124.836 187.328 123.734C186.203 122.625 185.641 121.285 185.641 119.715C185.641 118.285 186.168 117.059 187.223 116.035C188.285 115.012 189.598 114.5 191.16 114.5C192.77 114.5 194.094 115.027 195.133 116.082C196.172 117.129 196.684 118.488 196.668 120.16ZM195.672 119.164C195.477 118.078 194.961 117.195 194.125 116.516C193.297 115.836 192.309 115.496 191.16 115.496C190.012 115.496 189.023 115.832 188.195 116.504C187.367 117.176 186.852 118.062 186.648 119.164H195.672ZM204.578 114.852V117.336C205.859 116.18 206.816 115.438 207.449 115.109C208.09 114.773 208.68 114.605 209.219 114.605C209.805 114.605 210.348 114.805 210.848 115.203C211.355 115.594 211.609 115.891 211.609 116.094C211.609 116.242 211.559 116.367 211.457 116.469C211.363 116.562 211.242 116.609 211.094 116.609C211.016 116.609 210.949 116.598 210.895 116.574C210.84 116.543 210.738 116.453 210.59 116.305C210.316 116.031 210.078 115.844 209.875 115.742C209.672 115.641 209.473 115.59 209.277 115.59C208.848 115.59 208.328 115.762 207.719 116.105C207.117 116.449 206.07 117.289 204.578 118.625V124.016H208.938C209.18 124.016 209.352 124.062 209.453 124.156C209.555 124.242 209.605 124.359 209.605 124.508C209.605 124.648 209.555 124.766 209.453 124.859C209.352 124.953 209.18 125 208.938 125H201.215C200.98 125 200.812 124.957 200.711 124.871C200.609 124.777 200.559 124.66 200.559 124.52C200.559 124.387 200.605 124.277 200.699 124.191C200.801 124.098 200.973 124.051 201.215 124.051H203.594V115.848H201.777C201.543 115.848 201.375 115.801 201.273 115.707C201.172 115.613 201.121 115.492 201.121 115.344C201.121 115.203 201.168 115.086 201.262 114.992C201.363 114.898 201.535 114.852 201.777 114.852H204.578ZM221.031 125H219.367L215.324 115.848H214.316C214.082 115.848 213.914 115.801 213.812 115.707C213.711 115.613 213.66 115.492 213.66 115.344C213.66 115.203 213.711 115.086 213.812 114.992C213.914 114.898 214.082 114.852 214.316 114.852H218.008C218.242 114.852 218.41 114.898 218.512 114.992C218.613 115.086 218.664 115.207 218.664 115.355C218.664 115.496 218.613 115.613 218.512 115.707C218.41 115.801 218.242 115.848 218.008 115.848H216.379L219.988 124.016H220.422L223.961 115.848H222.32C222.086 115.848 221.918 115.801 221.816 115.707C221.715 115.613 221.664 115.492 221.664 115.344C221.664 115.203 221.715 115.086 221.816 114.992C221.918 114.898 222.086 114.852 222.32 114.852H226.023C226.266 114.852 226.434 114.898 226.527 114.992C226.629 115.086 226.68 115.207 226.68 115.355C226.68 115.496 226.629 115.613 226.527 115.707C226.434 115.801 226.266 115.848 226.023 115.848H225.027L221.031 125ZM235.07 109.801V112.344H233.617V109.801H235.07ZM235.105 114.852V124.016H238.973C239.215 124.016 239.387 124.062 239.488 124.156C239.59 124.242 239.641 124.359 239.641 124.508C239.641 124.648 239.59 124.766 239.488 124.859C239.387 124.953 239.215 125 238.973 125H230.254C230.02 125 229.852 124.953 229.75 124.859C229.648 124.766 229.598 124.648 229.598 124.508C229.598 124.359 229.648 124.242 229.75 124.156C229.852 124.062 230.02 124.016 230.254 124.016H234.121V115.848H231.25C231.016 115.848 230.844 115.801 230.734 115.707C230.633 115.613 230.582 115.496 230.582 115.355C230.582 115.207 230.633 115.086 230.734 114.992C230.836 114.898 231.008 114.852 231.25 114.852H235.105ZM253.105 115.848V115.52C253.105 115.277 253.152 115.105 253.246 115.004C253.34 114.902 253.457 114.852 253.598 114.852C253.746 114.852 253.867 114.902 253.961 115.004C254.055 115.105 254.102 115.277 254.102 115.52V117.746C254.094 117.988 254.043 118.16 253.949 118.262C253.863 118.363 253.746 118.414 253.598 118.414C253.465 118.414 253.352 118.371 253.258 118.285C253.172 118.191 253.121 118.039 253.105 117.828C253.059 117.273 252.691 116.746 252.004 116.246C251.324 115.746 250.406 115.496 249.25 115.496C247.789 115.496 246.68 115.953 245.922 116.867C245.164 117.781 244.785 118.828 244.785 120.008C244.785 121.281 245.203 122.332 246.039 123.16C246.875 123.988 247.957 124.402 249.285 124.402C250.051 124.402 250.828 124.262 251.617 123.98C252.414 123.699 253.133 123.246 253.773 122.621C253.938 122.465 254.082 122.387 254.207 122.387C254.34 122.387 254.449 122.434 254.535 122.527C254.629 122.613 254.676 122.723 254.676 122.855C254.676 123.191 254.281 123.617 253.492 124.133C252.219 124.969 250.801 125.387 249.238 125.387C247.652 125.387 246.348 124.883 245.324 123.875C244.309 122.859 243.801 121.574 243.801 120.02C243.801 118.434 244.32 117.117 245.359 116.07C246.406 115.023 247.723 114.5 249.309 114.5C250.816 114.5 252.082 114.949 253.105 115.848ZM268.738 120.16H258.707C258.879 121.434 259.41 122.461 260.301 123.242C261.199 124.016 262.309 124.402 263.629 124.402C264.363 124.402 265.133 124.281 265.938 124.039C266.742 123.797 267.398 123.477 267.906 123.078C268.055 122.961 268.184 122.902 268.293 122.902C268.418 122.902 268.527 122.953 268.621 123.055C268.715 123.148 268.762 123.262 268.762 123.395C268.762 123.527 268.699 123.656 268.574 123.781C268.199 124.172 267.531 124.539 266.57 124.883C265.617 125.219 264.637 125.387 263.629 125.387C261.941 125.387 260.531 124.836 259.398 123.734C258.273 122.625 257.711 121.285 257.711 119.715C257.711 118.285 258.238 117.059 259.293 116.035C260.355 115.012 261.668 114.5 263.23 114.5C264.84 114.5 266.164 115.027 267.203 116.082C268.242 117.129 268.754 118.488 268.738 120.16ZM267.742 119.164C267.547 118.078 267.031 117.195 266.195 116.516C265.367 115.836 264.379 115.496 263.23 115.496C262.082 115.496 261.094 115.832 260.266 116.504C259.438 117.176 258.922 118.062 258.719 119.164H267.742Z" fill="black"/>
<path d="M150.75 60.5H175.25" stroke="black" stroke-width="2" stroke-linecap="round" stroke-linejoin="round"/>
<defs>
<filter id="filter0_ddii_3051_4125" x="0" y="0" width="316" height="88" filterUnits="userSpaceOnUse" color-interpolation-filters="sRGB">
<feFlood flood-opacity="0" result="BackgroundImageFix"/>
<feColorMatrix in="SourceAlpha" type="matrix" values="0 0 0 0 0 0 0 0 0 0 0 0 0 0 0 0 0 0 127 0" result="hardAlpha"/>
<feMorphology radius="2" operator="dilate" in="SourceAlpha" result="effect1_dropShadow_3051_4125"/>
<feOffset dy="4"/>
<feGaussianBlur stdDeviation="2"/>
<feComposite in2="hardAlpha" operator="out"/>
<feColorMatrix type="matrix" values="0 0 0 0 0 0 0 0 0 0 0 0 0 0 0 0 0 0 0.25 0"/>
<feBlend mode="normal" in2="BackgroundImageFix" result="effect1_dropShadow_3051_4125"/>
<feColorMatrix in="SourceAlpha" type="matrix" values="0 0 0 0 0 0 0 0 0 0 0 0 0 0 0 0 0 0 127 0" result="hardAlpha"/>
<feOffset dx="2" dy="-3"/>
<feGaussianBlur stdDeviation="2"/>
<feComposite in2="hardAlpha" operator="out"/>
<feColorMatrix type="matrix" values="0 0 0 0 0 0 0 0 0 0 0 0 0 0 0 0 0 0 0.25 0"/>
<feBlend mode="normal" in2="effect1_dropShadow_3051_4125" result="effect2_dropShadow_3051_4125"/>
<feBlend mode="normal" in="SourceGraphic" in2="effect2_dropShadow_3051_4125" result="shape"/>
<feColorMatrix in="SourceAlpha" type="matrix" values="0 0 0 0 0 0 0 0 0 0 0 0 0 0 0 0 0 0 127 0" result="hardAlpha"/>
<feMorphology radius="6" operator="dilate" in="SourceAlpha" result="effect3_innerShadow_3051_4125"/>
<feOffset dx="-7" dy="9"/>
<feGaussianBlur stdDeviation="2.5"/>
<feComposite in2="hardAlpha" operator="arithmetic" k2="-1" k3="1"/>
<feColorMatrix type="matrix" values="0 0 0 0 0.870588 0 0 0 0 0.870588 0 0 0 0 0.870588 0 0 0 0.42 0"/>
<feBlend mode="normal" in2="shape" result="effect3_innerShadow_3051_4125"/>
<feColorMatrix in="SourceAlpha" type="matrix" values="0 0 0 0 0 0 0 0 0 0 0 0 0 0 0 0 0 0 127 0" result="hardAlpha"/>
<feOffset dx="7" dy="-5"/>
<feComposite in2="hardAlpha" operator="arithmetic" k2="-1" k3="1"/>
<feColorMatrix type="matrix" values="0 0 0 0 0 0 0 0 0 0 0 0 0 0 0 0 0 0 0.25 0"/>
<feBlend mode="normal" in2="effect3_innerShadow_3051_4125" result="effect4_innerShadow_3051_4125"/>
</filter>
</defs>
</svg>
