<svg width="36" height="39" viewBox="0 0 36 39" fill="none" xmlns="http://www.w3.org/2000/svg">
<path d="M17.7337 38.4683V33.2746H15.8788V31.6052H14.2094V33.2746H12.54V34.944H10.8707V35.1295H10.6852V36.7989H12.54V38.4683H9.01578V31.6052H7.1609V31.4198V29.7504H5.49151V28.081H3.82212V26.2261H2.05999V24.5567H0.297852V14.1694H1.96724V17.6937H3.63663V19.363H5.49151V21.0324H5.677V21.2179H9.01578V19.363H10.6852V17.6937H13.282V15.8388H15.8788V14.1694H17.7337V2.85463H19.4031V0.999756H20.145V1.18524V1.37073H20.3305H20.516V1.18524H20.7015V1.37073H21.0725V1.18524H21.258V1.37073H21.6289V1.18524H21.8144V1.37073H22.1854V1.18524H22.3709V1.37073H22.7419V0.999756H25.7097V1.18524V1.37073H26.0807V1.18524H26.2661V1.37073H26.6371V1.18524H26.8226V1.37073H27.1936V1.18524H27.3791V1.37073H27.75V1.18524H27.9355V1.37073H28.3065V0.999756H30.9033V1.18524V1.37073H31.2743V1.18524H31.4598V1.37073H31.8308V1.18524H32.0163V1.37073H32.3872V1.18524H32.5727V1.37073H32.9437V1.18524V0.999756H33.3147V2.85463H34.9841V10.6451H26.2661V12.3145H31.4598V14.1694H24.5968V17.6937H28.121V21.0324H26.4516V19.363H24.5968V25.4841H22.9274V28.081H21.0725V29.7504H19.4031V36.7989H21.0725V38.4683H17.7337Z" fill="#F5F5F5" stroke="black" stroke-width="0.185488"/>
</svg>
