<svg width="495" height="183" viewBox="0 0 495 183" fill="none" xmlns="http://www.w3.org/2000/svg">
<g filter="url(#filter0_d_3051_3885)">
<path d="M0 20C0 8.9543 8.9543 0 20 0H467C478.046 0 487 8.95431 487 20V85.8644C487 94.745 481.144 102.562 472.622 105.058L249.668 170.357C246.006 171.43 242.113 171.432 238.449 170.364L14.4023 105.046C5.86779 102.558 0 94.7348 0 85.8451V20Z" fill="#BCC3CB"/>
<path d="M20 0.5H467C477.77 0.5 486.5 9.23045 486.5 20V85.8644C486.5 94.523 480.79 102.145 472.481 104.578L249.528 169.877C245.957 170.923 242.161 170.926 238.589 169.884L14.5422 104.566C6.2211 102.14 0.5 94.5126 0.5 85.8451V20C0.5 9.23045 9.23045 0.5 20 0.5Z" stroke="black"/>
</g>
<defs>
<filter id="filter0_d_3051_3885" x="0" y="0" width="495" height="182.164" filterUnits="userSpaceOnUse" color-interpolation-filters="sRGB">
<feFlood flood-opacity="0" result="BackgroundImageFix"/>
<feColorMatrix in="SourceAlpha" type="matrix" values="0 0 0 0 0 0 0 0 0 0 0 0 0 0 0 0 0 0 127 0" result="hardAlpha"/>
<feOffset dx="4" dy="7"/>
<feGaussianBlur stdDeviation="2"/>
<feComposite in2="hardAlpha" operator="out"/>
<feColorMatrix type="matrix" values="0 0 0 0 0 0 0 0 0 0 0 0 0 0 0 0 0 0 0.29 0"/>
<feBlend mode="normal" in2="BackgroundImageFix" result="effect1_dropShadow_3051_3885"/>
<feBlend mode="normal" in="SourceGraphic" in2="effect1_dropShadow_3051_3885" result="shape"/>
</filter>
</defs>
</svg>
