<svg width="548" height="548" viewBox="0 0 548 548" fill="none" xmlns="http://www.w3.org/2000/svg">
<g filter="url(#filter0_ii_3051_3850)">
<path d="M192.68 123.297C231.79 63.6875 318.427 61.5677 360.406 119.193L377.126 142.145C383.245 150.545 390.612 157.96 398.971 164.134L435.357 191.008C490.767 231.932 490.517 314.879 434.861 355.468L399.475 381.274C390.785 387.611 383.152 395.283 376.86 404.005L360.692 426.412C318.75 484.543 231.508 482.416 192.448 422.31L183.152 408.005C175.789 396.675 166.248 386.92 155.083 379.308L122.833 357.321C63.6557 316.975 63.3983 229.802 122.336 189.108L155.601 166.14C166.43 158.663 175.709 149.161 182.928 138.159L192.68 123.297Z" fill="#424446"/>
</g>
<g filter="url(#filter1_dii_3051_3850)">
<circle cx="276.168" cy="385.52" r="63.4867" fill="#2C2C29"/>
<circle cx="276.168" cy="385.52" r="62.9867" stroke="black"/>
</g>
<g filter="url(#filter2_dii_3051_3850)">
<circle cx="162.862" cy="273.703" r="63.4867" fill="#2C2C29"/>
<circle cx="162.862" cy="273.703" r="62.9867" stroke="black"/>
</g>
<g filter="url(#filter3_dii_3051_3850)">
<circle cx="387.985" cy="272.213" r="63.4867" fill="#2C2C29"/>
<circle cx="387.985" cy="272.213" r="62.9867" stroke="black"/>
</g>
<g filter="url(#filter4_dii_3051_3850)">
<circle cx="279.151" cy="164.868" r="63.4867" fill="#2C2C29"/>
<circle cx="279.151" cy="164.868" r="62.9867" stroke="black"/>
</g>
<g clip-path="url(#clip0_3051_3850)">
<g filter="url(#filter5_d_3051_3850)">
<path d="M311.323 158.614L280.518 127.969L249.714 158.614C249.351 158.89 249.051 159.242 248.835 159.645C248.619 160.047 248.493 160.492 248.464 160.948C248.434 161.404 248.504 161.86 248.666 162.287C248.829 162.714 249.082 163.101 249.407 163.422C249.733 163.742 250.123 163.989 250.552 164.146C250.981 164.303 251.439 164.365 251.894 164.33C252.35 164.294 252.792 164.161 253.192 163.94C253.591 163.718 253.939 163.414 254.21 163.046L277.329 140.118V201.121C277.329 201.967 277.665 202.778 278.263 203.376C278.862 203.974 279.673 204.31 280.518 204.31C281.364 204.31 282.175 203.974 282.773 203.376C283.371 202.778 283.707 201.967 283.707 201.121V140.118L306.826 163.046C307.427 163.642 308.24 163.976 309.086 163.973C309.932 163.97 310.742 163.631 311.339 163.03C311.935 162.43 312.268 161.617 312.265 160.771C312.262 159.925 311.923 159.114 311.323 158.518V158.614Z" fill="#AAE4D1"/>
</g>
</g>
<g style="mix-blend-mode:hard-light" clip-path="url(#clip1_3051_3850)">
<g filter="url(#filter6_d_3051_3850)">
<path fill-rule="evenodd" clip-rule="evenodd" d="M172.609 247.736C174.156 247.471 175.888 247.383 177.519 247.66C180.425 248.151 183.118 249.5 185.251 251.535C186.639 251.565 188.005 251.291 189.214 250.902C190.381 250.52 191.502 250.008 192.556 249.377L192.583 249.358C193.022 249.066 193.548 248.935 194.072 248.986C194.596 249.038 195.086 249.269 195.46 249.64C195.833 250.012 196.066 250.501 196.12 251.025C196.174 251.549 196.045 252.075 195.755 252.515C195.125 253.474 194.245 255.185 193.262 257.102L192.79 258.018C192.227 259.114 191.649 260.222 191.11 261.172C190.772 261.769 190.41 262.374 190.045 262.898V263.732C190.082 268.72 189.126 273.665 187.231 278.279C185.337 282.894 182.543 287.084 179.011 290.607C175.48 294.13 171.282 296.914 166.663 298.797C162.044 300.68 157.096 301.624 152.108 301.574C144.88 301.584 137.803 299.501 131.733 295.577C131.297 295.297 130.969 294.877 130.803 294.387C130.638 293.896 130.644 293.363 130.821 292.876C130.998 292.39 131.335 291.977 131.778 291.708C132.22 291.438 132.741 291.327 133.254 291.392C134.168 291.503 135.086 291.559 136.009 291.559C139.299 291.547 142.546 290.825 145.531 289.441C143.661 288.59 141.99 287.36 140.622 285.828C139.254 284.296 138.22 282.497 137.586 280.543C137.465 280.169 137.443 279.771 137.521 279.386C137.6 279.001 137.776 278.643 138.033 278.346L138.064 278.315C136.519 276.939 135.281 275.253 134.43 273.367C133.579 271.482 133.134 269.438 133.124 267.369V267.208C133.123 266.707 133.288 266.219 133.592 265.821C133.896 265.423 134.323 265.136 134.807 265.004C133.777 262.948 133.242 260.68 133.245 258.381C133.244 255.773 133.926 253.21 135.224 250.947C135.408 250.626 135.668 250.355 135.981 250.156C136.294 249.958 136.65 249.839 137.019 249.809C137.388 249.779 137.759 249.839 138.099 249.985C138.44 250.13 138.74 250.356 138.974 250.643C144.3 257.2 151.927 261.478 160.3 262.606C160.227 259.867 160.918 257.161 162.295 254.793C163.672 252.424 165.682 250.486 168.098 249.194C169.322 248.543 170.941 248.022 172.609 247.736ZM138.274 270.712C138.865 272.375 139.878 273.857 141.213 275.011C142.549 276.166 144.161 276.954 145.893 277.299C146.392 277.398 146.843 277.661 147.175 278.046C147.508 278.431 147.702 278.916 147.727 279.424C147.752 279.933 147.607 280.434 147.314 280.851C147.022 281.267 146.599 281.573 146.112 281.721C145.282 281.973 144.436 282.149 143.573 282.248C144.509 283.454 145.702 284.435 147.067 285.12C148.431 285.805 149.931 286.176 151.457 286.205C151.928 286.214 152.384 286.368 152.764 286.647C153.144 286.925 153.428 287.314 153.578 287.76C153.728 288.207 153.736 288.688 153.602 289.14C153.467 289.591 153.197 289.989 152.827 290.281C149.651 292.776 145.963 294.537 142.027 295.44C145.286 296.485 148.689 297.013 152.112 297.008H152.139C156.522 297.054 160.871 296.226 164.93 294.572C168.99 292.919 172.68 290.473 175.784 287.377C178.887 284.282 181.343 280.599 183.008 276.544C184.673 272.489 185.513 268.143 185.479 263.759V262.131C185.478 261.576 185.68 261.041 186.045 260.624C186.258 260.384 186.623 259.83 187.141 258.919C187.628 258.061 188.17 257.026 188.733 255.933L188.833 255.732C187.243 256.09 185.606 256.19 183.984 256.028C183.436 255.968 182.928 255.712 182.554 255.306C181.023 253.646 178.984 252.542 176.758 252.165C175.635 252.005 174.494 252.031 173.379 252.241C172.293 252.41 171.238 252.741 170.25 253.224C168.258 254.288 166.676 255.984 165.752 258.044C164.827 260.104 164.613 262.413 165.143 264.608C165.226 264.954 165.227 265.314 165.147 265.659C165.067 266.005 164.907 266.328 164.681 266.601C164.454 266.875 164.167 267.091 163.842 267.234C163.516 267.377 163.162 267.442 162.808 267.424C153.456 266.948 144.616 263.013 138.003 256.384C137.874 257.043 137.81 257.712 137.811 258.384V258.39C137.808 260.066 138.219 261.717 139.008 263.196C139.797 264.676 140.94 265.936 142.334 266.867C142.744 267.143 143.053 267.544 143.216 268.01C143.378 268.476 143.385 268.982 143.235 269.452C143.086 269.923 142.788 270.332 142.386 270.619C141.985 270.906 141.501 271.055 141.007 271.043C140.089 271.014 139.175 270.902 138.277 270.708" fill="#CAC3F5"/>
</g>
</g>
<g filter="url(#filter7_d_3051_3850)">
<path fill-rule="evenodd" clip-rule="evenodd" d="M276.047 354.773C267.732 354.773 266.688 354.809 263.421 354.957C260.161 355.106 257.935 355.624 255.986 356.38C253.944 357.151 252.094 358.357 250.564 359.913C249.007 361.445 247.801 363.296 247.03 365.338C246.274 367.284 245.758 369.51 245.608 372.77C245.459 376.038 245.424 377.081 245.424 385.396C245.424 393.712 245.459 394.755 245.608 398.023C245.756 401.283 246.274 403.509 247.03 405.455C247.815 407.469 248.861 409.176 250.564 410.88C252.094 412.436 253.944 413.642 255.986 414.413C257.935 415.167 260.161 415.685 263.421 415.836C266.688 415.984 267.732 416.019 276.047 416.019C284.362 416.019 285.406 415.984 288.673 415.836C291.933 415.687 294.159 415.169 296.105 414.413C298.148 413.642 299.999 412.436 301.53 410.88C303.087 409.348 304.292 407.497 305.063 405.455C305.817 403.509 306.335 401.283 306.486 398.023C306.635 394.755 306.67 393.712 306.67 385.396C306.67 377.081 306.635 376.038 306.486 372.77C306.338 369.51 305.819 367.284 305.061 365.338C304.291 363.296 303.086 361.445 301.53 359.913C299.999 358.357 298.148 357.151 296.105 356.38C294.159 355.626 291.933 355.108 288.673 354.957C285.406 354.809 284.362 354.773 276.047 354.773ZM276.047 360.29C284.223 360.29 285.191 360.323 288.421 360.469C291.405 360.606 293.028 361.105 294.107 361.525C295.537 362.081 296.557 362.742 297.629 363.814C298.701 364.886 299.363 365.906 299.919 367.336C300.338 368.415 300.837 370.035 300.974 373.022C301.12 376.25 301.153 377.22 301.153 385.396C301.153 393.573 301.12 394.541 300.974 397.771C300.837 400.757 300.338 402.378 299.919 403.457C299.43 404.788 298.647 405.992 297.629 406.979C296.642 407.997 295.439 408.78 294.107 409.268C293.028 409.688 291.405 410.187 288.421 410.324C285.194 410.47 284.223 410.503 276.047 410.503C267.87 410.503 266.9 410.47 263.673 410.324C260.686 410.187 259.065 409.688 257.986 409.268C256.655 408.78 255.451 407.997 254.465 406.979C253.446 405.992 252.664 404.788 252.175 403.457C251.756 402.378 251.256 400.757 251.12 397.771C250.974 394.543 250.941 393.573 250.941 385.396C250.941 377.22 250.974 376.252 251.12 373.022C251.256 370.035 251.756 368.415 252.175 367.336C252.731 365.906 253.393 364.886 254.465 363.814C255.451 362.796 256.655 362.013 257.986 361.525C259.065 361.105 260.686 360.606 263.673 360.469C266.9 360.323 267.87 360.29 276.047 360.29Z" fill="#D4ADE3"/>
<path fill-rule="evenodd" clip-rule="evenodd" d="M276.047 368.906C271.674 368.906 267.48 370.644 264.387 373.736C261.295 376.828 259.558 381.023 259.558 385.396C259.558 389.769 261.295 393.963 264.387 397.055C267.48 400.148 271.674 401.885 276.047 401.885C280.42 401.885 284.614 400.148 287.707 397.055C290.799 393.963 292.536 389.769 292.536 385.396C292.536 381.023 290.799 376.828 287.707 373.736C284.614 370.644 280.42 368.906 276.047 368.906ZM276.047 395.996C273.236 395.996 270.539 394.879 268.551 392.891C266.563 390.903 265.447 388.207 265.447 385.396C265.447 382.584 266.563 379.888 268.551 377.9C270.539 375.912 273.236 374.796 276.047 374.796C278.858 374.796 281.555 375.912 283.542 377.9C285.53 379.888 286.647 382.584 286.647 385.396C286.647 388.207 285.53 390.903 283.542 392.891C281.555 394.879 278.858 395.996 276.047 395.996ZM296.541 369.142C296.541 369.637 296.443 370.127 296.254 370.584C296.064 371.042 295.787 371.457 295.437 371.807C295.087 372.157 294.671 372.435 294.214 372.624C293.757 372.814 293.267 372.911 292.772 372.911C292.277 372.911 291.787 372.814 291.329 372.624C290.872 372.435 290.457 372.157 290.107 371.807C289.757 371.457 289.479 371.042 289.29 370.584C289.1 370.127 289.003 369.637 289.003 369.142C289.003 368.142 289.4 367.184 290.107 366.477C290.814 365.77 291.772 365.373 292.772 365.373C293.771 365.373 294.73 365.77 295.437 366.477C296.144 367.184 296.541 368.142 296.541 369.142Z" fill="#D4ADE3"/>
</g>
<g clip-path="url(#clip2_3051_3850)">
<g style="mix-blend-mode:hard-light" filter="url(#filter8_d_3051_3850)">
<path fill-rule="evenodd" clip-rule="evenodd" d="M382.325 243.481C385.933 239.872 390.827 237.844 395.93 237.844H405.826C406.555 237.844 407.254 238.133 407.769 238.649C408.285 239.164 408.574 239.864 408.574 240.593V253.787C408.574 254.516 408.285 255.215 407.769 255.731C407.254 256.246 406.555 256.536 405.826 256.536H395.93C395.858 256.536 395.786 256.55 395.719 256.578C395.653 256.605 395.592 256.646 395.541 256.697C395.49 256.748 395.449 256.809 395.422 256.875C395.394 256.942 395.38 257.013 395.38 257.086V264.233H405.826C406.243 264.232 406.656 264.327 407.032 264.511C407.407 264.694 407.736 264.96 407.993 265.289C408.251 265.619 408.429 266.002 408.516 266.411C408.603 266.82 408.595 267.243 408.494 267.649L405.195 280.843C405.046 281.438 404.703 281.966 404.219 282.343C403.736 282.72 403.14 282.925 402.527 282.925H395.38V306.565C395.38 307.294 395.09 307.993 394.575 308.508C394.059 309.024 393.36 309.314 392.631 309.314H379.437C378.708 309.314 378.008 309.024 377.493 308.508C376.977 307.993 376.688 307.294 376.688 306.565V282.925H369.541C368.812 282.925 368.113 282.635 367.597 282.12C367.082 281.604 366.792 280.905 366.792 280.176V266.981C366.792 266.62 366.863 266.263 367.001 265.93C367.139 265.596 367.342 265.293 367.597 265.038C367.852 264.782 368.155 264.58 368.489 264.442C368.822 264.304 369.18 264.233 369.541 264.233H376.688V257.086C376.688 251.983 378.716 247.089 382.325 243.481ZM395.93 243.341C392.285 243.341 388.789 244.789 386.211 247.367C383.634 249.945 382.185 253.44 382.185 257.086V266.981C382.185 267.71 381.896 268.41 381.38 268.925C380.865 269.441 380.166 269.73 379.437 269.73H372.29V277.427H379.437C380.166 277.427 380.865 277.717 381.38 278.232C381.896 278.748 382.185 279.447 382.185 280.176V303.816H389.882V280.176C389.882 279.447 390.172 278.748 390.687 278.232C391.203 277.717 391.902 277.427 392.631 277.427H400.379L402.303 269.73H392.631C391.902 269.73 391.203 269.441 390.687 268.925C390.172 268.41 389.882 267.71 389.882 266.981V257.086C389.882 255.482 390.519 253.944 391.654 252.809C392.788 251.675 394.326 251.038 395.93 251.038H403.077V243.341H395.93Z" fill="#B7D9E9"/>
</g>
</g>
<defs>
<filter id="filter0_ii_3051_3850" x="74.291" y="74.25" width="404.468" height="398.48" filterUnits="userSpaceOnUse" color-interpolation-filters="sRGB">
<feFlood flood-opacity="0" result="BackgroundImageFix"/>
<feBlend mode="normal" in="SourceGraphic" in2="BackgroundImageFix" result="shape"/>
<feColorMatrix in="SourceAlpha" type="matrix" values="0 0 0 0 0 0 0 0 0 0 0 0 0 0 0 0 0 0 127 0" result="hardAlpha"/>
<feOffset dx="2" dy="-3"/>
<feGaussianBlur stdDeviation="2"/>
<feComposite in2="hardAlpha" operator="arithmetic" k2="-1" k3="1"/>
<feColorMatrix type="matrix" values="0 0 0 0 0 0 0 0 0 0 0 0 0 0 0 0 0 0 0.37 0"/>
<feBlend mode="normal" in2="shape" result="effect1_innerShadow_3051_3850"/>
<feColorMatrix in="SourceAlpha" type="matrix" values="0 0 0 0 0 0 0 0 0 0 0 0 0 0 0 0 0 0 127 0" result="hardAlpha"/>
<feOffset dx="-4" dy="4"/>
<feGaussianBlur stdDeviation="2"/>
<feComposite in2="hardAlpha" operator="arithmetic" k2="-1" k3="1"/>
<feColorMatrix type="matrix" values="0 0 0 0 0.448333 0 0 0 0 0.437498 0 0 0 0 0.437498 0 0 0 0.21 0"/>
<feBlend mode="normal" in2="effect1_innerShadow_3051_3850" result="effect2_innerShadow_3051_3850"/>
</filter>
<filter id="filter1_dii_3051_3850" x="207.682" y="318.033" width="136.974" height="139.973" filterUnits="userSpaceOnUse" color-interpolation-filters="sRGB">
<feFlood flood-opacity="0" result="BackgroundImageFix"/>
<feColorMatrix in="SourceAlpha" type="matrix" values="0 0 0 0 0 0 0 0 0 0 0 0 0 0 0 0 0 0 127 0" result="hardAlpha"/>
<feMorphology radius="1" operator="dilate" in="SourceAlpha" result="effect1_dropShadow_3051_3850"/>
<feOffset dy="4"/>
<feGaussianBlur stdDeviation="2"/>
<feComposite in2="hardAlpha" operator="out"/>
<feColorMatrix type="matrix" values="0 0 0 0 0 0 0 0 0 0 0 0 0 0 0 0 0 0 0.37 0"/>
<feBlend mode="normal" in2="BackgroundImageFix" result="effect1_dropShadow_3051_3850"/>
<feBlend mode="normal" in="SourceGraphic" in2="effect1_dropShadow_3051_3850" result="shape"/>
<feColorMatrix in="SourceAlpha" type="matrix" values="0 0 0 0 0 0 0 0 0 0 0 0 0 0 0 0 0 0 127 0" result="hardAlpha"/>
<feOffset dx="-2" dy="5"/>
<feGaussianBlur stdDeviation="2"/>
<feComposite in2="hardAlpha" operator="arithmetic" k2="-1" k3="1"/>
<feColorMatrix type="matrix" values="0 0 0 0 1 0 0 0 0 1 0 0 0 0 1 0 0 0 0.25 0"/>
<feBlend mode="normal" in2="shape" result="effect2_innerShadow_3051_3850"/>
<feColorMatrix in="SourceAlpha" type="matrix" values="0 0 0 0 0 0 0 0 0 0 0 0 0 0 0 0 0 0 127 0" result="hardAlpha"/>
<feOffset dx="2" dy="-4"/>
<feGaussianBlur stdDeviation="2"/>
<feComposite in2="hardAlpha" operator="arithmetic" k2="-1" k3="1"/>
<feColorMatrix type="matrix" values="0 0 0 0 0 0 0 0 0 0 0 0 0 0 0 0 0 0 0.25 0"/>
<feBlend mode="normal" in2="effect2_innerShadow_3051_3850" result="effect3_innerShadow_3051_3850"/>
</filter>
<filter id="filter2_dii_3051_3850" x="94.375" y="206.217" width="136.974" height="139.973" filterUnits="userSpaceOnUse" color-interpolation-filters="sRGB">
<feFlood flood-opacity="0" result="BackgroundImageFix"/>
<feColorMatrix in="SourceAlpha" type="matrix" values="0 0 0 0 0 0 0 0 0 0 0 0 0 0 0 0 0 0 127 0" result="hardAlpha"/>
<feMorphology radius="1" operator="dilate" in="SourceAlpha" result="effect1_dropShadow_3051_3850"/>
<feOffset dy="4"/>
<feGaussianBlur stdDeviation="2"/>
<feComposite in2="hardAlpha" operator="out"/>
<feColorMatrix type="matrix" values="0 0 0 0 0 0 0 0 0 0 0 0 0 0 0 0 0 0 0.37 0"/>
<feBlend mode="normal" in2="BackgroundImageFix" result="effect1_dropShadow_3051_3850"/>
<feBlend mode="normal" in="SourceGraphic" in2="effect1_dropShadow_3051_3850" result="shape"/>
<feColorMatrix in="SourceAlpha" type="matrix" values="0 0 0 0 0 0 0 0 0 0 0 0 0 0 0 0 0 0 127 0" result="hardAlpha"/>
<feOffset dx="-2" dy="5"/>
<feGaussianBlur stdDeviation="2"/>
<feComposite in2="hardAlpha" operator="arithmetic" k2="-1" k3="1"/>
<feColorMatrix type="matrix" values="0 0 0 0 1 0 0 0 0 1 0 0 0 0 1 0 0 0 0.25 0"/>
<feBlend mode="normal" in2="shape" result="effect2_innerShadow_3051_3850"/>
<feColorMatrix in="SourceAlpha" type="matrix" values="0 0 0 0 0 0 0 0 0 0 0 0 0 0 0 0 0 0 127 0" result="hardAlpha"/>
<feOffset dx="2" dy="-4"/>
<feGaussianBlur stdDeviation="2"/>
<feComposite in2="hardAlpha" operator="arithmetic" k2="-1" k3="1"/>
<feColorMatrix type="matrix" values="0 0 0 0 0 0 0 0 0 0 0 0 0 0 0 0 0 0 0.25 0"/>
<feBlend mode="normal" in2="effect2_innerShadow_3051_3850" result="effect3_innerShadow_3051_3850"/>
</filter>
<filter id="filter3_dii_3051_3850" x="319.498" y="204.727" width="136.974" height="139.973" filterUnits="userSpaceOnUse" color-interpolation-filters="sRGB">
<feFlood flood-opacity="0" result="BackgroundImageFix"/>
<feColorMatrix in="SourceAlpha" type="matrix" values="0 0 0 0 0 0 0 0 0 0 0 0 0 0 0 0 0 0 127 0" result="hardAlpha"/>
<feMorphology radius="1" operator="dilate" in="SourceAlpha" result="effect1_dropShadow_3051_3850"/>
<feOffset dy="4"/>
<feGaussianBlur stdDeviation="2"/>
<feComposite in2="hardAlpha" operator="out"/>
<feColorMatrix type="matrix" values="0 0 0 0 0 0 0 0 0 0 0 0 0 0 0 0 0 0 0.37 0"/>
<feBlend mode="normal" in2="BackgroundImageFix" result="effect1_dropShadow_3051_3850"/>
<feBlend mode="normal" in="SourceGraphic" in2="effect1_dropShadow_3051_3850" result="shape"/>
<feColorMatrix in="SourceAlpha" type="matrix" values="0 0 0 0 0 0 0 0 0 0 0 0 0 0 0 0 0 0 127 0" result="hardAlpha"/>
<feOffset dx="-2" dy="5"/>
<feGaussianBlur stdDeviation="2"/>
<feComposite in2="hardAlpha" operator="arithmetic" k2="-1" k3="1"/>
<feColorMatrix type="matrix" values="0 0 0 0 1 0 0 0 0 1 0 0 0 0 1 0 0 0 0.25 0"/>
<feBlend mode="normal" in2="shape" result="effect2_innerShadow_3051_3850"/>
<feColorMatrix in="SourceAlpha" type="matrix" values="0 0 0 0 0 0 0 0 0 0 0 0 0 0 0 0 0 0 127 0" result="hardAlpha"/>
<feOffset dx="2" dy="-4"/>
<feGaussianBlur stdDeviation="2"/>
<feComposite in2="hardAlpha" operator="arithmetic" k2="-1" k3="1"/>
<feColorMatrix type="matrix" values="0 0 0 0 0 0 0 0 0 0 0 0 0 0 0 0 0 0 0.25 0"/>
<feBlend mode="normal" in2="effect2_innerShadow_3051_3850" result="effect3_innerShadow_3051_3850"/>
</filter>
<filter id="filter4_dii_3051_3850" x="210.664" y="97.3809" width="136.974" height="139.973" filterUnits="userSpaceOnUse" color-interpolation-filters="sRGB">
<feFlood flood-opacity="0" result="BackgroundImageFix"/>
<feColorMatrix in="SourceAlpha" type="matrix" values="0 0 0 0 0 0 0 0 0 0 0 0 0 0 0 0 0 0 127 0" result="hardAlpha"/>
<feMorphology radius="1" operator="dilate" in="SourceAlpha" result="effect1_dropShadow_3051_3850"/>
<feOffset dy="4"/>
<feGaussianBlur stdDeviation="2"/>
<feComposite in2="hardAlpha" operator="out"/>
<feColorMatrix type="matrix" values="0 0 0 0 0 0 0 0 0 0 0 0 0 0 0 0 0 0 0.37 0"/>
<feBlend mode="normal" in2="BackgroundImageFix" result="effect1_dropShadow_3051_3850"/>
<feBlend mode="normal" in="SourceGraphic" in2="effect1_dropShadow_3051_3850" result="shape"/>
<feColorMatrix in="SourceAlpha" type="matrix" values="0 0 0 0 0 0 0 0 0 0 0 0 0 0 0 0 0 0 127 0" result="hardAlpha"/>
<feOffset dx="-2" dy="5"/>
<feGaussianBlur stdDeviation="2"/>
<feComposite in2="hardAlpha" operator="arithmetic" k2="-1" k3="1"/>
<feColorMatrix type="matrix" values="0 0 0 0 1 0 0 0 0 1 0 0 0 0 1 0 0 0 0.25 0"/>
<feBlend mode="normal" in2="shape" result="effect2_innerShadow_3051_3850"/>
<feColorMatrix in="SourceAlpha" type="matrix" values="0 0 0 0 0 0 0 0 0 0 0 0 0 0 0 0 0 0 127 0" result="hardAlpha"/>
<feOffset dx="2" dy="-4"/>
<feGaussianBlur stdDeviation="2"/>
<feComposite in2="hardAlpha" operator="arithmetic" k2="-1" k3="1"/>
<feColorMatrix type="matrix" values="0 0 0 0 0 0 0 0 0 0 0 0 0 0 0 0 0 0 0.25 0"/>
<feBlend mode="normal" in2="effect2_innerShadow_3051_3850" result="effect3_innerShadow_3051_3850"/>
</filter>
<filter id="filter5_d_3051_3850" x="238.457" y="117.969" width="83.8086" height="96.3418" filterUnits="userSpaceOnUse" color-interpolation-filters="sRGB">
<feFlood flood-opacity="0" result="BackgroundImageFix"/>
<feColorMatrix in="SourceAlpha" type="matrix" values="0 0 0 0 0 0 0 0 0 0 0 0 0 0 0 0 0 0 127 0" result="hardAlpha"/>
<feOffset/>
<feGaussianBlur stdDeviation="5"/>
<feComposite in2="hardAlpha" operator="out"/>
<feColorMatrix type="matrix" values="0 0 0 0 0.388993 0 0 0 0 0.708333 0 0 0 0 0.571473 0 0 0 1 0"/>
<feBlend mode="normal" in2="BackgroundImageFix" result="effect1_dropShadow_3051_3850"/>
<feBlend mode="normal" in="SourceGraphic" in2="effect1_dropShadow_3051_3850" result="shape"/>
</filter>
<filter id="filter6_d_3051_3850" x="120.684" y="237.49" width="85.4482" height="74.0859" filterUnits="userSpaceOnUse" color-interpolation-filters="sRGB">
<feFlood flood-opacity="0" result="BackgroundImageFix"/>
<feColorMatrix in="SourceAlpha" type="matrix" values="0 0 0 0 0 0 0 0 0 0 0 0 0 0 0 0 0 0 127 0" result="hardAlpha"/>
<feOffset/>
<feGaussianBlur stdDeviation="5"/>
<feComposite in2="hardAlpha" operator="out"/>
<feColorMatrix type="matrix" values="0 0 0 0 0.563404 0 0 0 0 0.517562 0 0 0 0 0.845 0 0 0 1 0"/>
<feBlend mode="normal" in2="BackgroundImageFix" result="effect1_dropShadow_3051_3850"/>
<feBlend mode="normal" in="SourceGraphic" in2="effect1_dropShadow_3051_3850" result="shape"/>
</filter>
<filter id="filter7_d_3051_3850" x="235.424" y="344.773" width="81.2461" height="81.2461" filterUnits="userSpaceOnUse" color-interpolation-filters="sRGB">
<feFlood flood-opacity="0" result="BackgroundImageFix"/>
<feColorMatrix in="SourceAlpha" type="matrix" values="0 0 0 0 0 0 0 0 0 0 0 0 0 0 0 0 0 0 127 0" result="hardAlpha"/>
<feOffset/>
<feGaussianBlur stdDeviation="5"/>
<feComposite in2="hardAlpha" operator="out"/>
<feColorMatrix type="matrix" values="0 0 0 0 0.498039 0 0 0 0 0.243137 0 0 0 0 0.541176 0 0 0 1 0"/>
<feBlend mode="normal" in2="BackgroundImageFix" result="effect1_dropShadow_3051_3850"/>
<feBlend mode="normal" in="SourceGraphic" in2="effect1_dropShadow_3051_3850" result="shape"/>
</filter>
<filter id="filter8_d_3051_3850" x="356.792" y="227.844" width="61.7842" height="91.4707" filterUnits="userSpaceOnUse" color-interpolation-filters="sRGB">
<feFlood flood-opacity="0" result="BackgroundImageFix"/>
<feColorMatrix in="SourceAlpha" type="matrix" values="0 0 0 0 0 0 0 0 0 0 0 0 0 0 0 0 0 0 127 0" result="hardAlpha"/>
<feOffset/>
<feGaussianBlur stdDeviation="5"/>
<feComposite in2="hardAlpha" operator="out"/>
<feColorMatrix type="matrix" values="0 0 0 0 0.372923 0 0 0 0 0.557794 0 0 0 0 0.691667 0 0 0 1 0"/>
<feBlend mode="normal" in2="BackgroundImageFix" result="effect1_dropShadow_3051_3850"/>
<feBlend mode="normal" in="SourceGraphic" in2="effect1_dropShadow_3051_3850" result="shape"/>
</filter>
<clipPath id="clip0_3051_3850">
<rect width="114.799" height="114.799" fill="white" transform="translate(223.119 108.836)"/>
</clipPath>
<clipPath id="clip1_3051_3850">
<rect width="76.0357" height="76.0357" fill="white" transform="translate(126.209 235.562)"/>
</clipPath>
<clipPath id="clip2_3051_3850">
<rect width="87.9629" height="87.9629" fill="white" transform="translate(343.885 229.598)"/>
</clipPath>
</defs>
</svg>
