<svg width="248" height="248" viewBox="0 0 248 248" fill="none" xmlns="http://www.w3.org/2000/svg">
<circle cx="97.5853" cy="84.3783" r="5.13609" fill="black"/>
<circle cx="110.793" cy="97.5853" r="5.13609" fill="black"/>
<circle cx="124" cy="110.792" r="5.13609" fill="black"/>
<circle cx="137.207" cy="123.999" r="5.13609" fill="black"/>
<circle cx="97.5853" cy="110.792" r="5.13609" fill="black"/>
<circle cx="124" cy="84.3783" r="5.13609" fill="black"/>
<circle cx="110.793" cy="123.999" r="5.13609" fill="black"/>
<circle cx="97.5853" cy="137.206" r="5.13609" fill="black"/>
<circle cx="84.3783" cy="150.413" r="5.13609" fill="black"/>
<circle cx="110.793" cy="150.413" r="5.13609" fill="black"/>
<circle cx="150.414" cy="110.792" r="5.13609" fill="black"/>
<circle cx="137.207" cy="150.413" r="5.13609" fill="black"/>
<circle cx="137.207" cy="150.413" r="5.13609" fill="black"/>
<circle cx="150.414" cy="163.62" r="5.13609" fill="black"/>
<circle cx="162.154" cy="123.999" r="5.13609" fill="black"/>
<circle cx="176.828" cy="137.206" r="5.13609" fill="black"/>
<circle cx="176.828" cy="110.792" r="5.13609" fill="black"/>
<circle cx="163.621" cy="97.5853" r="5.13609" fill="black"/>
<circle cx="150.414" cy="84.3783" r="5.13609" fill="black"/>
<circle cx="137.207" cy="71.1712" r="5.13609" fill="black"/>
<circle cx="190.036" cy="97.5853" r="5.13609" fill="black"/>
<circle cx="176.828" cy="84.3783" r="5.13609" fill="black"/>
<circle cx="163.621" cy="71.1712" r="5.13609" fill="black"/>
<circle cx="150.414" cy="57.9642" r="5.13609" fill="black"/>
<circle cx="203.243" cy="84.3783" r="5.13609" fill="black"/>
<circle cx="216.45" cy="97.5853" r="5.13609" fill="black"/>
<circle cx="190.036" cy="71.1712" r="5.13609" fill="black"/>
<circle cx="176.828" cy="57.9642" r="5.13609" fill="black"/>
<circle cx="163.621" cy="44.7572" r="5.13609" fill="black"/>
<circle cx="110.793" cy="71.1712" r="5.13609" fill="black"/>
<circle cx="110.793" cy="176.827" r="5.13609" fill="black"/>
<circle cx="163.621" cy="150.413" r="5.13609" fill="black"/>
<circle cx="150.414" cy="137.206" r="5.13609" fill="black"/>
<circle cx="97.5853" cy="163.62" r="5.13609" fill="black"/>
<circle cx="71.1712" cy="110.792" r="5.13609" fill="black"/>
<circle cx="124" cy="163.62" r="5.13609" fill="black"/>
<circle cx="137.207" cy="176.827" r="5.13609" fill="black"/>
<circle cx="163.621" cy="176.827" r="5.13609" fill="black"/>
<circle cx="190.036" cy="150.413" r="5.13609" fill="black"/>
<circle cx="176.828" cy="163.62" r="5.13609" fill="black"/>
<circle cx="150.414" cy="190.035" r="5.13609" fill="black"/>
<circle cx="176.828" cy="190.035" r="5.13609" fill="black"/>
<circle cx="203.243" cy="163.62" r="5.13609" fill="black"/>
<circle cx="216.45" cy="150.413" r="5.13609" fill="black"/>
<circle cx="229.657" cy="137.206" r="5.13609" fill="black"/>
<circle cx="229.657" cy="110.792" r="5.13609" fill="black"/>
<circle cx="190.036" cy="176.827" r="5.13609" fill="black"/>
<circle cx="163.621" cy="203.244" r="5.13609" fill="black"/>
<circle cx="150.414" cy="216.451" r="5.13609" fill="black"/>
<circle cx="84.3783" cy="123.999" r="5.13609" fill="black"/>
<circle cx="71.1712" cy="137.206" r="5.13609" fill="black"/>
<circle cx="57.9642" cy="123.999" r="5.13609" fill="black"/>
<circle cx="44.7572" cy="137.206" r="5.13609" fill="black"/>
<circle cx="190.036" cy="123.999" r="5.13609" fill="black"/>
<circle cx="203.243" cy="137.206" r="5.13609" fill="black"/>
<circle cx="216.45" cy="123.999" r="5.13609" fill="black"/>
<circle cx="124" cy="190.035" r="5.13609" fill="black"/>
<circle cx="124" cy="57.9642" r="5.13609" fill="black"/>
<circle cx="44.7572" cy="110.792" r="5.13609" fill="black"/>
<circle cx="110.793" cy="44.7572" r="5.13609" fill="black"/>
<circle cx="97.5853" cy="31.5502" r="5.13609" fill="black"/>
<circle cx="110.793" cy="18.3431" r="5.13609" fill="black"/>
<circle cx="124" cy="5.13609" r="5.13609" fill="black"/>
<circle cx="201.775" cy="110.792" r="5.13609" fill="black"/>
<circle cx="137.207" cy="44.7572" r="5.13609" fill="black"/>
<circle cx="124" cy="31.5502" r="5.13609" fill="black"/>
<circle cx="148.947" cy="30.0834" r="5.13609" fill="black"/>
<circle cx="137.207" cy="18.3431" r="5.13609" fill="black"/>
<circle cx="216.45" cy="71.1712" r="5.13609" fill="black"/>
<circle cx="229.657" cy="84.3783" r="5.13609" fill="black"/>
<circle cx="203.243" cy="57.9642" r="5.13609" fill="black"/>
<circle cx="190.036" cy="44.7572" r="5.13609" fill="black"/>
<circle cx="176.828" cy="31.5502" r="5.13609" fill="black"/>
<circle cx="242.864" cy="97.5853" r="5.13609" fill="black"/>
<circle cx="163.621" cy="18.3431" r="5.13609" fill="black"/>
<circle cx="229.657" cy="57.9642" r="5.13609" fill="black"/>
<circle cx="242.864" cy="71.1712" r="5.13609" fill="black"/>
<circle cx="216.45" cy="44.7572" r="5.13609" fill="black"/>
<circle cx="203.243" cy="31.5502" r="5.13609" fill="black"/>
<circle cx="190.036" cy="18.3431" r="5.13609" fill="black"/>
<circle cx="176.828" cy="5.13609" r="5.13609" fill="black"/>
<circle cx="150.414" cy="5.13609" r="5.13609" fill="black"/>
<circle cx="137.207" cy="203.244" r="5.13609" fill="black"/>
<circle cx="110.793" cy="203.244" r="5.13609" fill="black"/>
<circle cx="124" cy="216.451" r="5.13609" fill="black"/>
<circle cx="71.1712" cy="163.62" r="5.13609" fill="black"/>
<circle cx="97.5853" cy="190.035" r="5.13609" fill="black"/>
<circle cx="84.3783" cy="176.827" r="5.13609" fill="black"/>
<circle cx="57.9642" cy="150.413" r="5.13609" fill="black"/>
<circle cx="57.9642" cy="176.827" r="5.13609" fill="black"/>
<circle cx="84.3783" cy="203.244" r="5.13609" fill="black"/>
<circle cx="97.5853" cy="216.451" r="5.13609" fill="black"/>
<circle cx="97.5853" cy="216.451" r="5.13609" fill="black"/>
<circle cx="110.793" cy="229.658" r="5.13609" fill="black"/>
<circle cx="110.793" cy="229.658" r="5.13609" fill="black"/>
<circle cx="124" cy="242.865" r="5.13609" fill="black"/>
<circle cx="137.207" cy="229.658" r="5.13609" fill="black"/>
<circle cx="190.036" cy="203.244" r="5.13609" fill="black"/>
<circle cx="216.45" cy="176.827" r="5.13609" fill="black"/>
<circle cx="229.657" cy="163.62" r="5.13609" fill="black"/>
<circle cx="242.864" cy="150.413" r="5.13609" fill="black"/>
<circle cx="242.864" cy="123.999" r="5.13609" fill="black"/>
<circle cx="203.243" cy="190.035" r="5.13609" fill="black"/>
<circle cx="176.828" cy="216.451" r="5.13609" fill="black"/>
<circle cx="163.621" cy="229.658" r="5.13609" fill="black"/>
<circle cx="203.243" cy="216.451" r="5.13609" fill="black"/>
<circle cx="229.657" cy="190.035" r="5.13609" fill="black"/>
<circle cx="242.864" cy="176.827" r="5.13609" fill="black"/>
<circle cx="216.45" cy="203.244" r="5.13609" fill="black"/>
<circle cx="190.036" cy="229.658" r="5.13609" fill="black"/>
<circle cx="176.828" cy="242.865" r="5.13609" fill="black"/>
<circle cx="150.414" cy="242.865" r="5.13609" fill="black"/>
<circle cx="71.1712" cy="190.035" r="5.13609" fill="black"/>
<circle cx="44.7572" cy="163.62" r="5.13609" fill="black"/>
<path d="M36.6863 150.413C36.6863 153.25 34.3867 155.55 31.5502 155.55C28.7136 155.55 26.4141 153.25 26.4141 150.413C26.4141 147.577 28.7136 145.277 31.5502 145.277C34.3867 145.277 36.6863 147.577 36.6863 150.413Z" fill="black"/>
<path d="M10.2722 123.999C10.2722 126.836 7.97268 129.135 5.13609 129.135C2.29951 129.135 0 126.836 0 123.999C0 121.163 2.29951 118.863 5.13609 118.863C7.97268 118.863 10.2722 121.163 10.2722 123.999Z" fill="black"/>
<path d="M8.80473 123.999C8.80473 126.836 6.83373 129.135 4.40237 129.135C1.97101 129.135 0 126.836 0 123.999C0 121.163 1.97101 118.863 4.40237 118.863C6.83373 118.863 8.80473 121.163 8.80473 123.999Z" fill="black"/>
<circle cx="44.7572" cy="190.035" r="5.13609" fill="black"/>
<circle cx="71.1712" cy="216.451" r="5.13609" fill="black"/>
<circle cx="84.3783" cy="229.658" r="5.13609" fill="black"/>
<circle cx="97.5853" cy="242.865" r="5.13609" fill="black"/>
<circle cx="57.9642" cy="203.244" r="5.13609" fill="black"/>
<circle cx="31.5502" cy="176.827" r="5.13609" fill="black"/>
<path d="M23.4792 163.62C23.4792 166.457 21.1797 168.757 18.3431 168.757C15.5065 168.757 13.207 166.457 13.207 163.62C13.207 160.784 15.5065 158.484 18.3431 158.484C21.1797 158.484 23.4792 160.784 23.4792 163.62Z" fill="black"/>
<circle cx="31.5502" cy="203.244" r="5.13609" fill="black"/>
<circle cx="57.9642" cy="229.658" r="5.13609" fill="black"/>
<circle cx="71.1712" cy="242.865" r="5.13609" fill="black"/>
<circle cx="44.7572" cy="216.451" r="5.13609" fill="black"/>
<circle cx="18.3431" cy="190.035" r="5.13609" fill="black"/>
<path d="M10.2722 176.828C10.2722 179.664 7.97268 181.964 5.13609 181.964C2.29951 181.964 0 179.664 0 176.828C0 173.991 2.29951 171.691 5.13609 171.691C7.97268 171.691 10.2722 173.991 10.2722 176.828Z" fill="black"/>
<path d="M10.2722 150.413C10.2722 153.25 7.97268 155.55 5.13609 155.55C2.29951 155.55 0 153.25 0 150.413C0 147.577 2.29951 145.277 5.13609 145.277C7.97268 145.277 10.2722 147.577 10.2722 150.413Z" fill="black"/>
<path d="M23.4792 137.206C23.4792 140.043 21.1797 142.343 18.3431 142.343C15.5065 142.343 13.207 140.043 13.207 137.206C13.207 134.37 15.5065 132.07 18.3431 132.07C21.1797 132.07 23.4792 134.37 23.4792 137.206Z" fill="black"/>
<path d="M23.4792 137.206C23.4792 140.043 21.1797 142.343 18.3431 142.343C15.5065 142.343 13.207 140.043 13.207 137.206C13.207 134.37 15.5065 132.07 18.3431 132.07C21.1797 132.07 23.4792 134.37 23.4792 137.206Z" fill="black"/>
<path d="M23.4792 110.792C23.4792 113.629 21.1797 115.928 18.3431 115.928C15.5065 115.928 13.207 113.629 13.207 110.792C13.207 107.956 15.5065 105.656 18.3431 105.656C21.1797 105.656 23.4792 107.956 23.4792 110.792Z" fill="black"/>
<circle cx="31.5502" cy="123.999" r="5.13609" fill="black"/>
<circle cx="31.5502" cy="97.5853" r="5.13609" fill="black"/>
<circle cx="84.3783" cy="97.5853" r="5.13609" fill="black"/>
<circle cx="84.3783" cy="71.1712" r="5.13609" fill="black"/>
<circle cx="97.5853" cy="57.9642" r="5.13609" fill="black"/>
<circle cx="57.9642" cy="97.5853" r="5.13609" fill="black"/>
<circle cx="71.1712" cy="84.3783" r="5.13609" fill="black"/>
<circle cx="71.1712" cy="57.9642" r="5.13609" fill="black"/>
<circle cx="84.3783" cy="44.7572" r="5.13609" fill="black"/>
<circle cx="44.7572" cy="84.3783" r="5.13609" fill="black"/>
<circle cx="57.9642" cy="71.1712" r="5.13609" fill="black"/>
<circle cx="84.3783" cy="18.3431" r="5.13609" fill="black"/>
<circle cx="97.5853" cy="5.13609" r="5.13609" fill="black"/>
<path d="M10.2722 97.5853C10.2722 100.422 7.97268 102.721 5.13609 102.721C2.29951 102.721 0 100.422 0 97.5853C0 94.7487 2.29951 92.4492 5.13609 92.4492C7.97268 92.4492 10.2722 94.7487 10.2722 97.5853Z" fill="black"/>
<circle cx="18.3431" cy="84.3783" r="5.13609" fill="black"/>
<circle cx="57.9642" cy="44.7572" r="5.13609" fill="black"/>
<circle cx="71.1712" cy="31.5502" r="5.13609" fill="black"/>
<circle cx="31.5502" cy="71.1712" r="5.13609" fill="black"/>
<circle cx="44.7572" cy="57.9642" r="5.13609" fill="black"/>
<circle cx="71.1712" cy="5.13609" r="5.13609" fill="black"/>
<circle cx="5.13609" cy="72.64" r="5.13609" fill="black"/>
<circle cx="44.7572" cy="31.5502" r="5.13609" fill="black"/>
<circle cx="57.9642" cy="18.3431" r="5.13609" fill="black"/>
<circle cx="18.3431" cy="59.431" r="5.13609" fill="black"/>
<circle cx="31.5502" cy="46.224" r="5.13609" fill="black"/>
<circle cx="137.207" cy="97.5853" r="5.13609" fill="black"/>
<circle cx="124" cy="137.206" r="5.13609" fill="black"/>
</svg>
