<svg width="1074" height="509" viewBox="0 0 1074 509" fill="none" xmlns="http://www.w3.org/2000/svg">
<g filter="url(#filter0_i_3051_4133)">
<rect width="1074" height="509" rx="4" fill="#343434"/>
</g>
<rect x="0.5" y="0.5" width="1073" height="508" rx="3.5" stroke="black"/>
<path d="M39.9297 14H1064.79V497H39.9297V14Z" fill="#D9D9D9"/>
<g filter="url(#filter1_d_3051_4133)">
<rect x="71.668" y="143" width="966.498" height="342" fill="#A07C72"/>
<rect x="72.168" y="143.5" width="965.498" height="341" stroke="black"/>
</g>
<rect x="83.4307" y="150.5" width="945.021" height="326" fill="#F2E0D4" stroke="black"/>
<path d="M215.915 204.175H219.815V208.582L215.291 211.195H205.034L200.51 208.582V186.118L205.034 183.505H215.291L219.815 186.118V190.525H215.915V187.015H204.41V207.685H215.915V204.175ZM242.632 208.582L238.108 211.195H230.581L226.057 208.582V193.918L230.581 191.305H238.108L242.632 193.918V208.582ZM229.84 194.698V207.802H238.849V194.698H229.84ZM275.117 193.918V211H271.334V194.698H263.885V211H260.102V194.698H252.653V211H248.87V191.305H251.717L252.653 192.904L255.422 191.305H259.361L262.988 193.411L266.654 191.305H270.593L275.117 193.918ZM293.798 211.195H287.909L285.14 209.596V218.8H281.357V191.305H284.204L285.14 192.904L287.909 191.305H293.798L298.322 193.918V208.582L293.798 211.195ZM285.14 194.698V207.802H294.539V194.698H285.14ZM319.957 207.607V211H309.076L304.552 208.387V193.918L309.076 191.305H315.433L319.957 193.918V202.576H308.335V207.607H319.957ZM308.335 194.698V199.183H316.174V194.698H308.335ZM324.624 194.893V191.5H328.212V188.224L331.995 186.04V191.5H336.675V194.893H331.995V207.607H336.675V211H332.736L328.212 208.387V194.893H324.624ZM345.925 191.5V211H342.142V191.5H345.925ZM341.947 186.703V182.53H346.12V186.703H341.947ZM350.599 194.893V191.5H354.187V188.224L357.97 186.04V191.5H362.65V194.893H357.97V207.607H362.65V211H358.711L354.187 208.387V194.893H350.599ZM371.9 191.5V211H368.117V191.5H371.9ZM367.922 186.703V182.53H372.095V186.703H367.922ZM394.709 208.582L390.185 211.195H382.658L378.134 208.582V193.918L382.658 191.305H390.185L394.709 193.918V208.582ZM381.917 194.698V207.802H390.926V194.698H381.917ZM417.522 193.918V211H413.739V194.698H404.73V211H400.947V191.305H403.794L404.73 192.904L407.499 191.305H412.998L417.522 193.918ZM438.425 202.03V208.387L433.901 211H423.761V207.607H434.642V202.81H428.285L423.761 200.197V194.113L428.285 191.5H438.035V194.893H427.544V199.417H433.901L438.425 202.03ZM204.41 262.715V271.49H216.071V275H200.51V247.7H216.071V251.21H204.41V259.205H213.731V262.715H204.41ZM222.508 255.5L228.241 271.412H228.319L234.091 255.5H237.796L230.581 275H226.018L218.803 255.5H222.508ZM257.115 271.607V275H246.234L241.71 272.387V257.918L246.234 255.305H252.591L257.115 257.918V266.576H245.493V271.607H257.115ZM245.493 258.698V263.183H253.332V258.698H245.493ZM279.918 257.918V275H276.135V258.698H267.126V275H263.343V255.305H266.19L267.126 256.904L269.895 255.305H275.394L279.918 257.918ZM284.596 258.893V255.5H288.184V252.224L291.967 250.04V255.5H296.647V258.893H291.967V271.607H296.647V275H292.708L288.184 272.387V258.893H284.596ZM316.778 266.03V272.387L312.254 275H302.114V271.607H312.995V266.81H306.638L302.114 264.197V258.113L306.638 255.5H316.388V258.893H305.897V263.417H312.254L316.778 266.03ZM200.51 339V311.7H204.41V335.49H214.511V339H200.51ZM234.187 335.607V339H223.306L218.782 336.387V321.918L223.306 319.305H229.663L234.187 321.918V330.576H222.565V335.607H234.187ZM222.565 322.698V327.183H230.404V322.698H222.565ZM244.198 322.893V335.607H255.04V339H244.939L240.415 336.387V322.113L244.939 319.5H255.04V322.893H244.198ZM258.926 322.893V319.5H262.514V316.224L266.297 314.04V319.5H270.977V322.893H266.297V335.607H270.977V339H267.038L262.514 336.387V322.893H258.926ZM276.444 336.582V319.5H280.227V335.802H289.236V319.5H293.019V339.195H290.172L289.236 337.596L286.467 339.195H280.968L276.444 336.582ZM310.139 322.893H303.041V339H299.258V319.5H302.105L303.041 321.099L305.81 319.5H310.139V322.893ZM329.821 335.607V339H318.94L314.416 336.387V321.918L318.94 319.305H325.297L329.821 321.918V330.576H318.199V335.607H329.821ZM318.199 322.698V327.183H326.038V322.698H318.199ZM350.713 330.03V336.387L346.189 339H336.049V335.607H346.93V330.81H340.573L336.049 328.197V322.113L340.573 319.5H350.323V322.893H339.832V327.417H346.189L350.713 330.03ZM215.915 396.175H219.815V400.582L215.291 403.195H205.034L200.51 400.582V378.118L205.034 375.505H215.291L219.815 378.118V382.525H215.915V379.015H204.41V399.685H215.915V396.175ZM242.632 400.582L238.108 403.195H230.581L226.057 400.582V385.918L230.581 383.305H238.108L242.632 385.918V400.582ZM229.84 386.698V399.802H238.849V386.698H229.84ZM265.445 385.918V403H261.662V386.698H252.653V403H248.87V383.305H251.717L252.653 384.904L255.422 383.305H260.921L265.445 385.918ZM270.123 386.893V383.5H273.711V380.224L277.494 378.04V383.5H282.174V386.893H277.494V399.607H282.174V403H278.235L273.711 400.387V386.893H270.123ZM290.644 395.005V399.802H298.483V395.005H290.644ZM291.385 403.195L286.861 400.582V394.225L291.385 391.612H298.483V386.893H288.811V383.5H297.742L302.266 386.113V403.195H301.252L298.483 401.596L295.714 403.195H291.385ZM312.296 386.893V399.607H323.138V403H313.037L308.513 400.387V386.113L313.037 383.5H323.138V386.893H312.296ZM327.024 386.893V383.5H330.612V380.224L334.395 378.04V383.5H339.075V386.893H334.395V399.607H339.075V403H335.136L330.612 400.387V386.893H327.024Z" fill="black"/>
<path d="M755.929 198.57V188.118L760.453 185.505H769.54L774.064 188.118V192.135H770.164V189.015H759.829V197.283H769.54L774.064 199.896V210.582L769.54 213.195H760.063L755.539 210.582V206.565H759.439V209.685H770.164V201.183H760.453L755.929 198.57ZM784.458 196.893V209.607H795.3V213H785.199L780.675 210.387V196.113L785.199 193.5H795.3V196.893H784.458ZM804.53 213H800.747V184.53H804.53V194.904L807.299 193.305H813.188L817.712 195.918V213H813.929V196.698H804.53V213ZM839.346 209.607V213H828.465L823.941 210.387V195.918L828.465 193.305H834.822L839.346 195.918V204.576H827.724V209.607H839.346ZM827.724 196.698V201.183H835.563V196.698H827.724ZM850.098 193.305H855.987L858.756 194.904V184.53H862.539V213.195H859.692L858.756 211.596L855.987 213.195H850.098L845.574 210.582V195.918L850.098 193.305ZM858.756 209.802V196.698H849.357V209.802H858.756ZM868.768 210.582V193.5H872.551V209.802H881.56V193.5H885.343V213.195H882.496L881.56 211.596L878.791 213.195H873.292L868.768 210.582ZM896.106 213L891.582 210.387V184.53H895.365V209.607H900.045V213H896.106ZM919.365 209.607V213H908.484L903.96 210.387V195.918L908.484 193.305H914.841L919.365 195.918V204.576H907.743V209.607H919.365ZM907.743 196.698V201.183H915.582V196.698H907.743ZM751.589 249.7L744.569 277H739.928L734.156 255.121H734.078L728.306 277H723.665L716.645 249.7H720.428L725.966 272.008H726.044L731.933 249.7H736.301L742.151 272.008H742.229L747.806 249.7H751.589ZM772.457 274.582L767.933 277.195H760.406L755.882 274.582V259.918L760.406 257.305H767.933L772.457 259.918V274.582ZM759.665 260.698V273.802H768.674V260.698H759.665ZM789.576 260.893H782.478V277H778.695V257.5H781.542L782.478 259.099L785.247 257.5H789.576V260.893ZM797.636 248.53V267.211H797.714L805.748 257.5H810.272L802.745 266.314L811.442 277H806.801L800.483 269.005L797.636 272.359V277H793.853V248.53H797.636ZM829.236 268.03V274.387L824.712 277H814.572V273.607H825.453V268.81H819.096L814.572 266.197V260.113L819.096 257.5H828.846V260.893H818.355V265.417H824.712L829.236 268.03ZM839.264 277H835.481V248.53H839.264V258.904L842.033 257.305H847.922L852.446 259.918V277H848.663V260.698H839.264V277ZM875.25 274.582L870.726 277.195H863.199L858.675 274.582V259.918L863.199 257.305H870.726L875.25 259.918V274.582ZM862.458 260.698V273.802H871.467V260.698H862.458ZM893.93 277.195H888.041L885.272 275.596V284.8H881.489V257.305H884.336L885.272 258.904L888.041 257.305H893.93L898.454 259.918V274.582L893.93 277.195ZM885.272 260.698V273.802H894.671V260.698H885.272ZM919.347 268.03V274.387L914.823 277H904.683V273.607H915.564V268.81H909.207L904.683 266.197V260.113L909.207 257.5H918.957V260.893H908.466V265.417H914.823L919.347 268.03ZM834.934 328.715V341H831.034V313.7H846.985V317.21H834.934V325.205H844.645V328.715H834.934ZM863.533 313.7L873.283 341H869.461L867.16 334.526H855.07L852.769 341H848.947L858.697 313.7H863.533ZM861.076 317.561L856.318 331.016H865.912L861.154 317.561H861.076ZM881.475 317.015V337.685H894.15V317.015H881.475ZM889.314 341.195H882.099L877.575 338.582V316.118L882.099 313.505H893.526L898.05 316.118V338.582L893.526 341.195L897.933 348.8H893.604L889.314 341.195ZM919.347 332.03V338.387L914.823 341H904.683V337.607H915.564V332.81H909.207L904.683 330.197V324.113L909.207 321.5H918.957V324.893H908.466V329.417H914.823L919.347 332.03ZM838.565 381.21V405H834.665V381.21H826.904V377.7H846.326V381.21H838.565ZM866.006 401.607V405H855.125L850.601 402.387V387.918L855.125 385.305H861.482L866.006 387.918V396.576H854.384V401.607H866.006ZM854.384 388.698V393.183H862.223V388.698H854.384ZM875.237 397.005V401.802H883.076V397.005H875.237ZM875.978 405.195L871.454 402.582V396.225L875.978 393.612H883.076V388.893H873.404V385.5H882.335L886.859 388.113V405.195H885.845L883.076 403.596L880.307 405.195H875.978ZM919.352 387.918V405H915.569V388.698H908.12V405H904.337V388.698H896.888V405H893.105V385.305H895.952L896.888 386.904L899.657 385.305H903.596L907.223 387.411L910.889 385.305H914.828L919.352 387.918Z" fill="black"/>
<rect x="72.168" y="26.5" width="965.498" height="103" fill="#A07C72" stroke="black"/>
<rect x="83.4307" y="35.5" width="945.021" height="86" fill="#F2E0D4" stroke="black"/>
<path d="M420.174 66.375V83.875H415.799V88.25H411.424V92.625H393.924V88.25H389.549V66.375H393.924V62H415.799V66.375H420.174ZM411.424 66.375H398.299V88.25H407.049V83.875H402.674V79.5H411.424V66.375ZM415.799 92.625V88.25H420.174V92.625H415.799ZM428.924 92.625V88.25H424.549V70.75H433.299V88.25H446.424V70.75H455.174V92.625H428.924ZM472.674 66.375V62H481.424V66.375H472.674ZM463.924 92.625V88.25H472.674V75.125H468.299V70.75H481.424V88.25H490.174V92.625H463.924ZM498.924 92.625V88.25H494.549V75.125H498.924V70.75H525.174V75.125H503.299V88.25H525.174V92.625H498.924ZM529.549 92.625V62H538.299V79.5H547.049V75.125H551.424V70.75H560.174V75.125H555.799V79.5H551.424V83.875H555.799V88.25H560.174V92.625H551.424V88.25H547.049V83.875H538.299V92.625H529.549ZM603.924 92.625V62H612.674V88.25H630.174V92.625H603.924ZM647.674 66.375V62H656.424V66.375H647.674ZM638.924 92.625V88.25H647.674V75.125H643.299V70.75H656.424V88.25H665.174V92.625H638.924ZM669.549 92.625V70.75H695.799V75.125H700.174V92.625H691.424V75.125H678.299V92.625H669.549ZM704.549 92.625V62H713.299V79.5H722.049V75.125H726.424V70.75H735.174V75.125H730.799V79.5H726.424V83.875H730.799V88.25H735.174V92.625H726.424V88.25H722.049V83.875H713.299V92.625H704.549ZM739.549 92.625V88.25H761.424V83.875H743.924V79.5H739.549V75.125H743.924V70.75H765.799V75.125H748.299V79.5H765.799V83.875H770.174V88.25H765.799V92.625H739.549Z" fill="black"/>
<rect x="576.918" y="178.5" width="5.14299" height="268" fill="#A07C72" stroke="black"/>
<defs>
<filter id="filter0_i_3051_4133" x="0" y="0" width="1082" height="512" filterUnits="userSpaceOnUse" color-interpolation-filters="sRGB">
<feFlood flood-opacity="0" result="BackgroundImageFix"/>
<feBlend mode="normal" in="SourceGraphic" in2="BackgroundImageFix" result="shape"/>
<feColorMatrix in="SourceAlpha" type="matrix" values="0 0 0 0 0 0 0 0 0 0 0 0 0 0 0 0 0 0 127 0" result="hardAlpha"/>
<feMorphology radius="4" operator="erode" in="SourceAlpha" result="effect1_innerShadow_3051_4133"/>
<feOffset dx="10" dy="3"/>
<feGaussianBlur stdDeviation="2"/>
<feComposite in2="hardAlpha" operator="arithmetic" k2="-1" k3="1"/>
<feColorMatrix type="matrix" values="0 0 0 0 0 0 0 0 0 0 0 0 0 0 0 0 0 0 0.28 0"/>
<feBlend mode="normal" in2="shape" result="effect1_innerShadow_3051_4133"/>
</filter>
<filter id="filter1_d_3051_4133" x="49.668" y="123" width="1008.5" height="384" filterUnits="userSpaceOnUse" color-interpolation-filters="sRGB">
<feFlood flood-opacity="0" result="BackgroundImageFix"/>
<feColorMatrix in="SourceAlpha" type="matrix" values="0 0 0 0 0 0 0 0 0 0 0 0 0 0 0 0 0 0 127 0" result="hardAlpha"/>
<feMorphology radius="10" operator="dilate" in="SourceAlpha" result="effect1_dropShadow_3051_4133"/>
<feOffset dx="-1" dy="1"/>
<feGaussianBlur stdDeviation="5.5"/>
<feComposite in2="hardAlpha" operator="out"/>
<feColorMatrix type="matrix" values="0 0 0 0 1 0 0 0 0 1 0 0 0 0 1 0 0 0 0.25 0"/>
<feBlend mode="normal" in2="BackgroundImageFix" result="effect1_dropShadow_3051_4133"/>
<feBlend mode="normal" in="SourceGraphic" in2="effect1_dropShadow_3051_4133" result="shape"/>
</filter>
</defs>
</svg>
