<svg width="9" height="91" viewBox="0 0 9 91" fill="none" xmlns="http://www.w3.org/2000/svg">
<path d="M0.0859375 0.385025H8.03951V1.59828H0.0859375V0.385025ZM0.0859375 2.0027H8.03951V2.40712H0.0859375V2.0027ZM0.0859375 2.81154H8.03951V3.21596H0.0859375V2.81154ZM0.0859375 3.62038H8.03951V4.83363H0.0859375L0.0859375 3.62038ZM0.0859375 6.04689H8.03951V6.45131H0.0859375V6.04689ZM0.0859375 6.86204H8.03951V8.0753H0.0859375V6.86204ZM0.0859375 8.47972H8.03951V8.88414H0.0859375V8.47972ZM0.0859375 9.28856H8.03951V10.5018H0.0859375V9.28856ZM0.0859375 11.7151H8.03951V12.1195H0.0859375V11.7151ZM0.0859375 12.5239H8.03951V12.9283H0.0859375V12.5239ZM0.0859375 13.3391H8.03951V13.7435H0.0859375V13.3391ZM0.0859375 14.1479H8.03951L8.03951 14.5523H0.0859375V14.1479ZM0.0859375 14.9567H8.03951V15.3612H0.0859375V14.9567ZM0.0859375 16.5744H8.03951V17.7877H0.0859375V16.5744ZM0.0859375 18.1921H8.03951V19.4053H0.0859375V18.1921ZM0.0859375 19.8161H8.03951V20.2205H0.0859375V19.8161ZM0.0859375 21.4338H8.03951V22.647H0.0859375V21.4338ZM0.0859375 23.0514H8.03951V23.4559H0.0859375V23.0514ZM0.0859375 23.8603H8.03951V25.0735H0.0859375L0.0859375 23.8603ZM0.0859375 25.4779H8.03951V25.8824H0.0859375V25.4779ZM0.0859375 26.2931H8.03951V26.6975H0.0859375V26.2931ZM0.0859375 27.9108H8.03951V29.124H0.0859375V27.9108ZM0.0859375 29.5285H8.03951V29.9329H0.0859375V29.5285ZM0.0859375 30.3373H8.03951V31.5505H0.0859375V30.3373ZM0.0859375 31.955H8.03951V32.3594H0.0859375V31.955ZM0.0859375 32.7701H8.03951V33.1745H0.0859375V32.7701ZM0.0859375 33.579H8.03951V34.7922H0.0859375V33.579ZM0.0859375 35.1966H8.03951V36.4099H0.0859375V35.1966ZM0.0859375 37.6231H8.03951V38.0276H0.0859375V37.6231ZM0.0859375 38.432H8.03951V38.8364H0.0859375V38.432ZM0.0859375 39.2471H8.03951V40.4604H0.0859375V39.2471ZM0.0859375 40.8648H8.03951V41.2692H0.0859375V40.8648ZM0.0859375 41.6737H8.03951V42.8869H0.0859375V41.6737ZM0.0859375 44.1002H8.03951V44.5046H0.0859375V44.1002ZM0.0859375 44.909H8.03951V45.3134H0.0859375V44.909ZM0.0859375 45.7242H8.03951V46.1286H0.0859375V45.7242ZM0.0859375 46.533H8.03951V46.9374H0.0859375V46.533ZM0.0859375 47.3418H8.03951V48.5551H0.0859375V47.3418ZM0.0859375 49.7683H8.03951V50.1728H0.0859375V49.7683ZM0.0859375 50.5772H8.03951V51.7904H0.0859375V50.5772ZM0.0859375 52.2012H8.03951V52.6056H0.0859375V52.2012ZM0.0859375 53.01H8.03951V53.4144H0.0859375V53.01ZM0.0859375 53.8189H8.03951L8.03951 55.0321H0.0859375V53.8189ZM0.0859375 56.2454H8.03951V57.4586H0.0859375V56.2454ZM0.0859375 57.863H8.03951V58.2675H0.0859375V57.863ZM0.0859375 58.6782H8.03951V59.8915H0.0859375V58.6782ZM0.0859375 60.2959H8.03951V60.7003H0.0859375V60.2959ZM0.0859375 61.1047H8.03951V61.5091H0.0859375V61.1047ZM0.0859375 62.7224H8.03951V63.1268H0.0859375V62.7224ZM0.0859375 63.5312H8.03951V64.7445H0.0859375V63.5312ZM0.0859375 65.1552H8.03951V65.5596H0.0859375L0.0859375 65.1552ZM0.0859375 65.9641H8.03951V66.3685H0.0859375V65.9641ZM0.0859375 66.7729H8.03951V67.1773H0.0859375V66.7729ZM0.0859375 68.3906H8.03951V69.6038H0.0859375V68.3906ZM0.0859375 70.0082H8.03951V71.2215H0.0859375V70.0082ZM0.0859375 71.6322H8.03951V72.0367H0.0859375V71.6322ZM0.0859375 72.4411H8.03951V72.8455H0.0859375V72.4411ZM0.0859375 73.2499H8.03951V74.4632H0.0859375V73.2499ZM0.0859375 75.6764H8.03951V76.0808H0.0859375V75.6764ZM0.0859375 76.4853H8.03951V77.6985H0.0859375V76.4853ZM0.0859375 78.1093H8.03951V78.5137H0.0859375V78.1093ZM0.0859375 78.9181H8.03951V80.1313H0.0859375V78.9181ZM0.0859375 80.5358H8.03951V81.749H0.0859375V80.5358ZM0.0859375 82.9623H8.03951V83.3667H0.0859375V82.9623ZM0.0859375 83.7711H8.03951V84.1755H0.0859375V83.7711ZM0.0859375 84.5863H8.03951V85.7995H0.0859375L0.0859375 84.5863ZM0.0859375 86.2039H8.03951V86.6084H0.0859375V86.2039ZM0.0859375 87.0128H8.03951V88.226H0.0859375V87.0128ZM0.0859375 89.4393H8.03951V89.8437H0.0859375V89.4393ZM0.0859375 90.2481H8.03951V90.6526H0.0859375V90.2481Z" fill="white"/>
</svg>
